<?xml version="1.0" encoding="UTF-8"?>
<!DOCTYPE svg PUBLIC "-//W3C//DTD SVG 1.1//EN" "http://www.w3.org/Graphics/SVG/1.1/DTD/svg11.dtd">
<svg xmlns="http://www.w3.org/2000/svg" version="1.1" width="500px" height="500px" style="shape-rendering:geometricPrecision; text-rendering:geometricPrecision; image-rendering:optimizeQuality; fill-rule:evenodd; clip-rule:evenodd" xmlns:xlink="http://www.w3.org/1999/xlink">
<g><path style="opacity:0.994" fill="#e4e4e4" d="M 221.5,78.5 C 216.358,79.6471 211.025,80.4804 205.5,81C 214.162,81.4719 222.662,80.9719 231,79.5C 244.62,79.638 258.453,79.8047 272.5,80C 278.5,80.3333 284.5,80.6667 290.5,81C 293.989,83.7188 297.822,84.2188 302,82.5C 306.012,84.4409 310.179,85.7743 314.5,86.5C 314.903,89.4059 316.569,91.2393 319.5,92C 317.866,92.4935 316.199,92.6602 314.5,92.5C 314.5,93.8333 314.5,95.1667 314.5,96.5C 312.533,96.7394 310.699,96.4061 309,95.5C 307.314,99.7213 304.147,101.555 299.5,101C 300.5,101.333 301.5,101.667 302.5,102C 300.43,102.948 298.93,104.448 298,106.5C 297.193,102.551 296.693,102.551 296.5,106.5C 293.886,106.277 292.219,107.444 291.5,110C 287.61,111.132 283.777,111.299 280,110.5C 279.5,111.667 278.667,112.5 277.5,113C 261.49,115.167 245.49,117.334 229.5,119.5C 228.446,119.32 227.446,118.987 226.5,118.5C 225.289,119.274 225.289,120.107 226.5,121C 221.834,120.888 217.334,122.055 213,124.5C 212.107,123.919 211.107,123.585 210,123.5C 204.281,124.604 198.447,125.438 192.5,126C 193.737,126.232 194.737,126.732 195.5,127.5C 189.147,128.047 182.814,128.714 176.5,129.5C 175.341,127.75 173.674,126.75 171.5,126.5C 171.167,125.833 170.833,125.167 170.5,124.5C 171.975,122.59 173.975,121.424 176.5,121C 175.234,120.691 174.067,120.191 173,119.5C 172.333,122.167 171.667,122.167 171,119.5C 170.549,121.929 169.715,122.096 168.5,120C 168.833,119.667 169.167,119.333 169.5,119C 174.725,119.041 179.725,118.208 184.5,116.5C 186.772,117.441 188.772,118.774 190.5,120.5C 193.789,116.366 198.123,114.366 203.5,114.5C 204.874,110.687 205.707,111.02 206,115.5C 208.069,114.736 210.236,114.236 212.5,114C 210.833,113.667 209.167,113.333 207.5,113C 212.453,112.005 217.453,111.338 222.5,111C 223.728,108.86 225.395,107.193 227.5,106C 237.341,103.58 247.174,101.413 257,99.5C 257.333,100.167 257.667,100.833 258,101.5C 258.721,97.7602 259.888,94.2602 261.5,91C 253.549,89.4045 245.549,88.0712 237.5,87C 237.167,86.6667 236.833,86.3333 236.5,86C 238.833,85.6667 241.167,85.3333 243.5,85C 237.116,84.7941 230.783,84.2941 224.5,83.5C 218.747,83.7172 212.914,83.7172 207,83.5C 202.047,84.2166 197.047,84.8832 192,85.5C 191.127,85.2645 190.293,84.9312 189.5,84.5C 186.721,85.3561 183.888,86.0227 181,86.5C 173.689,86.1889 166.356,86.1889 159,86.5C 158.833,86.1667 158.667,85.8333 158.5,85.5C 159.949,84.8281 161.282,84.1614 162.5,83.5C 182.099,81.2941 201.766,79.6275 221.5,78.5 Z"/></g>
<g><path style="opacity:0.996" fill="#ebebeb" d="M 162.5,83.5 C 161.282,84.1614 159.949,84.8281 158.5,85.5C 158.667,85.8333 158.833,86.1667 159,86.5C 166.356,86.1889 173.689,86.1889 181,86.5C 183.888,86.0227 186.721,85.3561 189.5,84.5C 190.293,84.9312 191.127,85.2645 192,85.5C 197.047,84.8832 202.047,84.2166 207,83.5C 212.914,83.7172 218.747,83.7172 224.5,83.5C 230.783,84.2941 237.116,84.7941 243.5,85C 241.167,85.3333 238.833,85.6667 236.5,86C 236.833,86.3333 237.167,86.6667 237.5,87C 245.549,88.0712 253.549,89.4045 261.5,91C 259.888,94.2602 258.721,97.7602 258,101.5C 257.667,100.833 257.333,100.167 257,99.5C 247.174,101.413 237.341,103.58 227.5,106C 225.395,107.193 223.728,108.86 222.5,111C 217.453,111.338 212.453,112.005 207.5,113C 209.167,113.333 210.833,113.667 212.5,114C 210.236,114.236 208.069,114.736 206,115.5C 205.707,111.02 204.874,110.687 203.5,114.5C 198.123,114.366 193.789,116.366 190.5,120.5C 188.772,118.774 186.772,117.441 184.5,116.5C 179.725,118.208 174.725,119.041 169.5,119C 169.167,119.333 168.833,119.667 168.5,120C 169.715,122.096 170.549,121.929 171,119.5C 171.667,122.167 172.333,122.167 173,119.5C 174.067,120.191 175.234,120.691 176.5,121C 173.975,121.424 171.975,122.59 170.5,124.5C 150.086,111.624 128.753,100.291 106.5,90.5C 106.103,89.475 105.437,89.3083 104.5,90C 104.833,90.3333 105.167,90.6667 105.5,91C 103.679,93.456 103.012,96.2893 103.5,99.5C 103.5,104.833 103.5,110.167 103.5,115.5C 103.5,121.167 103.5,126.833 103.5,132.5C 103.5,137.167 103.5,141.833 103.5,146.5C 102.338,127.671 102.171,108.671 103,89.5C 103.5,89 104,88.5 104.5,88C 123.811,86.1685 143.145,84.6685 162.5,83.5 Z"/></g>
<g><path style="opacity:0.998" fill="#e2e2e2" d="M 106.5,90.5 C 127.998,102.75 149.665,114.75 171.5,126.5C 172.659,128.25 174.326,129.25 176.5,129.5C 176.5,129.833 176.5,130.167 176.5,130.5C 177.265,152.432 177.265,174.432 176.5,196.5C 171.682,195.704 170.349,193.038 172.5,188.5C 173.452,190.045 173.785,191.712 173.5,193.5C 174.552,193.649 175.552,193.483 176.5,193C 175.523,189.23 175.523,185.23 176.5,181C 176.333,180.167 176.167,179.333 176,178.5C 175.333,177.167 174.667,177.167 174,178.5C 173.502,175.183 173.335,171.85 173.5,168.5C 170.482,168.704 167.482,169.037 164.5,169.5C 164.66,167.801 164.494,166.134 164,164.5C 163.814,166.9 163.314,169.234 162.5,171.5C 161.372,167.227 161.705,163.06 163.5,159C 162.382,157.926 161.382,156.76 160.5,155.5C 154.49,158.386 149.49,162.386 145.5,167.5C 144.289,166.126 143.289,164.626 142.5,163C 143.958,161.248 145.291,159.415 146.5,157.5C 144.009,156.459 144.009,155.626 146.5,155C 142.259,155.291 139.259,153.624 137.5,150C 139.192,148.599 139.859,146.766 139.5,144.5C 137.5,144.5 135.5,144.5 133.5,144.5C 133.206,139.739 132.373,135.072 131,130.5C 129.784,132.962 129.118,135.629 129,138.5C 128.5,138 128,137.5 127.5,137C 128.167,133.812 128.501,130.312 128.5,126.5C 127.672,125.585 126.672,124.919 125.5,124.5C 123.74,127.926 121.574,128.259 119,125.5C 118.37,123.097 119.203,121.263 121.5,120C 119.526,116.389 117.526,112.723 115.5,109C 114.387,107.606 113.053,106.439 111.5,105.5C 110.979,101.48 108.812,98.8135 105,97.5C 104.722,98.4158 104.222,99.0825 103.5,99.5C 103.012,96.2893 103.679,93.456 105.5,91C 105.167,90.6667 104.833,90.3333 104.5,90C 105.437,89.3083 106.103,89.475 106.5,90.5 Z"/></g>
<g><path style="opacity:0.998" fill="#dddddd" d="M 176.5,196.5 C 176.5,227.833 176.5,259.167 176.5,290.5C 175.698,289.048 175.198,287.382 175,285.5C 174.558,287.679 173.558,288.345 172,287.5C 170.916,283.132 170.75,278.799 171.5,274.5C 168.451,268.082 167.451,267.915 168.5,274C 164.551,274.807 164.551,275.307 168.5,275.5C 167.934,278.583 167.934,281.583 168.5,284.5C 168.167,284.833 167.833,285.167 167.5,285.5C 166.614,284.675 166.281,283.675 166.5,282.5C 164.167,282.5 161.833,282.5 159.5,282.5C 159.5,283.5 159.5,284.5 159.5,285.5C 155.426,285.299 151.426,284.632 147.5,283.5C 144.301,281.367 141.634,278.7 139.5,275.5C 139.416,269.242 139.249,262.909 139,256.5C 138.599,253.301 137.766,250.301 136.5,247.5C 135.325,247.719 134.325,247.386 133.5,246.5C 132.408,243.906 130.741,241.739 128.5,240C 131.775,237.591 132.442,234.924 130.5,232C 131.624,231.161 132.291,229.994 132.5,228.5C 130.742,226.067 129.409,223.4 128.5,220.5C 128.878,218.865 129.544,217.365 130.5,216C 129.206,215.894 128.539,214.894 128.5,213C 128.845,211.427 129.511,210.26 130.5,209.5C 128.246,206.704 127.913,203.704 129.5,200.5C 127.806,192.968 126.973,185.301 127,177.5C 125.513,178.741 124.68,178.241 124.5,176C 123.653,168.624 122.82,161.458 122,154.5C 121.558,156.679 120.558,157.345 119,156.5C 118.918,150.736 117.752,145.236 115.5,140C 116.38,138.644 116.714,137.144 116.5,135.5C 111.807,134.341 110.807,131.841 113.5,128C 111.132,121.064 108.465,114.231 105.5,107.5C 104.832,110.306 104.166,112.972 103.5,115.5C 103.5,110.167 103.5,104.833 103.5,99.5C 104.222,99.0825 104.722,98.4158 105,97.5C 108.812,98.8135 110.979,101.48 111.5,105.5C 113.053,106.439 114.387,107.606 115.5,109C 117.526,112.723 119.526,116.389 121.5,120C 119.203,121.263 118.37,123.097 119,125.5C 121.574,128.259 123.74,127.926 125.5,124.5C 126.672,124.919 127.672,125.585 128.5,126.5C 128.501,130.312 128.167,133.812 127.5,137C 128,137.5 128.5,138 129,138.5C 129.118,135.629 129.784,132.962 131,130.5C 132.373,135.072 133.206,139.739 133.5,144.5C 135.5,144.5 137.5,144.5 139.5,144.5C 139.859,146.766 139.192,148.599 137.5,150C 139.259,153.624 142.259,155.291 146.5,155C 144.009,155.626 144.009,156.459 146.5,157.5C 145.291,159.415 143.958,161.248 142.5,163C 143.289,164.626 144.289,166.126 145.5,167.5C 149.49,162.386 154.49,158.386 160.5,155.5C 161.382,156.76 162.382,157.926 163.5,159C 161.705,163.06 161.372,167.227 162.5,171.5C 163.314,169.234 163.814,166.9 164,164.5C 164.494,166.134 164.66,167.801 164.5,169.5C 167.482,169.037 170.482,168.704 173.5,168.5C 173.335,171.85 173.502,175.183 174,178.5C 174.667,177.167 175.333,177.167 176,178.5C 176.167,179.333 176.333,180.167 176.5,181C 175.523,185.23 175.523,189.23 176.5,193C 175.552,193.483 174.552,193.649 173.5,193.5C 173.785,191.712 173.452,190.045 172.5,188.5C 170.349,193.038 171.682,195.704 176.5,196.5 Z"/></g>
<g><path style="opacity:0.997" fill="#d7d7d7" d="M 176.5,290.5 C 176.5,341.5 176.5,392.5 176.5,443.5C 175.5,443.167 174.833,442.5 174.5,441.5C 175.16,411.642 174.16,381.642 171.5,351.5C 171.57,350.228 171.903,349.062 172.5,348C 171.113,342.953 170.113,337.786 169.5,332.5C 168.28,333.711 167.113,333.711 166,332.5C 164.829,333.893 163.329,334.727 161.5,335C 162.451,335.718 162.617,336.551 162,337.5C 161.167,336.667 160.333,335.833 159.5,335C 162.174,332.191 164.507,329.191 166.5,326C 165.874,325.25 165.374,324.416 165,323.5C 161.636,324.979 158.136,325.979 154.5,326.5C 154.5,327.5 154.5,328.5 154.5,329.5C 150.859,328.353 147.192,327.019 143.5,325.5C 142.171,321.392 140.005,317.725 137,314.5C 135.745,310.959 135.578,307.459 136.5,304C 135.207,303.51 133.873,303.343 132.5,303.5C 131.449,307.208 130.116,307.041 128.5,303C 130.203,301.63 131.536,299.964 132.5,298C 132.063,295.116 132.063,292.116 132.5,289C 132.011,282.561 130.511,276.395 128,270.5C 127.337,267.131 127.504,263.797 128.5,260.5C 128.148,259.214 127.482,258.381 126.5,258C 126.96,256.699 127.294,255.366 127.5,254C 126.297,250.149 125.13,246.315 124,242.5C 121.86,227.145 119.86,211.811 118,196.5C 117.71,194.956 117.044,193.623 116,192.5C 115.444,194.595 114.944,194.762 114.5,193C 116.533,187.734 117.033,182.234 116,176.5C 114.2,167.955 113.033,159.288 112.5,150.5C 111.313,147.012 110.313,143.512 109.5,140C 110.727,138.413 110.394,137.079 108.5,136C 109.022,135.439 109.355,134.772 109.5,134C 106.814,129.731 105.481,125.231 105.5,120.5C 104.833,124.647 104.166,128.647 103.5,132.5C 103.5,126.833 103.5,121.167 103.5,115.5C 104.166,112.972 104.832,110.306 105.5,107.5C 108.465,114.231 111.132,121.064 113.5,128C 110.807,131.841 111.807,134.341 116.5,135.5C 116.714,137.144 116.38,138.644 115.5,140C 117.752,145.236 118.918,150.736 119,156.5C 120.558,157.345 121.558,156.679 122,154.5C 122.82,161.458 123.653,168.624 124.5,176C 124.68,178.241 125.513,178.741 127,177.5C 126.973,185.301 127.806,192.968 129.5,200.5C 127.913,203.704 128.246,206.704 130.5,209.5C 129.511,210.26 128.845,211.427 128.5,213C 128.539,214.894 129.206,215.894 130.5,216C 129.544,217.365 128.878,218.865 128.5,220.5C 129.409,223.4 130.742,226.067 132.5,228.5C 132.291,229.994 131.624,231.161 130.5,232C 132.442,234.924 131.775,237.591 128.5,240C 130.741,241.739 132.408,243.906 133.5,246.5C 134.325,247.386 135.325,247.719 136.5,247.5C 137.766,250.301 138.599,253.301 139,256.5C 139.249,262.909 139.416,269.242 139.5,275.5C 141.634,278.7 144.301,281.367 147.5,283.5C 151.426,284.632 155.426,285.299 159.5,285.5C 159.5,284.5 159.5,283.5 159.5,282.5C 161.833,282.5 164.167,282.5 166.5,282.5C 166.281,283.675 166.614,284.675 167.5,285.5C 167.833,285.167 168.167,284.833 168.5,284.5C 167.934,281.583 167.934,278.583 168.5,275.5C 164.551,275.307 164.551,274.807 168.5,274C 167.451,267.915 168.451,268.082 171.5,274.5C 170.75,278.799 170.916,283.132 172,287.5C 173.558,288.345 174.558,287.679 175,285.5C 175.198,287.382 175.698,289.048 176.5,290.5 Z"/></g>
<g><path style="opacity:1" fill="#3d3d3d" d="M 106.5,90.5 C 128.753,100.291 150.086,111.624 170.5,124.5C 170.833,125.167 171.167,125.833 171.5,126.5C 149.665,114.75 127.998,102.75 106.5,90.5 Z"/></g>
<g><path style="opacity:0.998" fill="#dddddd" d="M 378.5,418.5 C 378.5,417.833 378.5,417.167 378.5,416.5C 378.667,338.833 378.5,261.166 378,183.5C 377.82,201.394 375.987,219.061 372.5,236.5C 370.833,236.5 369.167,236.5 367.5,236.5C 367.665,239.85 367.498,243.183 367,246.5C 365.152,248.018 363.652,249.851 362.5,252C 363.573,253.25 363.573,254.584 362.5,256C 362.667,256.5 362.833,257 363,257.5C 364.574,256.016 365.907,254.349 367,252.5C 368.356,253.38 369.856,253.714 371.5,253.5C 371.5,254.833 371.5,256.167 371.5,257.5C 369.133,258.164 367.133,259.497 365.5,261.5C 364.914,261.291 364.414,260.957 364,260.5C 363.535,261.931 362.701,263.097 361.5,264C 361.957,264.414 362.291,264.914 362.5,265.5C 361.272,267.321 359.606,268.321 357.5,268.5C 357.352,277.189 356.686,286.022 355.5,295C 355.182,297.688 354.349,300.188 353,302.5C 350.106,301.385 348.939,302.552 349.5,306C 350.167,314.009 349.834,322.009 348.5,330C 348.862,331.225 349.362,332.391 350,333.5C 350.645,332.354 351.478,331.354 352.5,330.5C 351.975,329.808 351.308,329.308 350.5,329C 351.143,324.216 351.809,319.383 352.5,314.5C 353.329,319.802 353.829,325.136 354,330.5C 354.5,331.667 355.333,332.5 356.5,333C 354.893,334.049 354.227,335.549 354.5,337.5C 353.07,337.579 351.736,337.246 350.5,336.5C 349.903,340.302 348.903,343.968 347.5,347.5C 348.348,349.409 348.682,351.409 348.5,353.5C 346.61,353.297 345.11,353.963 344,355.5C 343.503,358.146 343.336,360.813 343.5,363.5C 342.07,363.579 340.736,363.246 339.5,362.5C 338.355,363.776 338.355,365.109 339.5,366.5C 338.976,368.453 337.976,370.12 336.5,371.5C 337.326,373.548 336.659,375.215 334.5,376.5C 331.25,384.327 328.584,392.327 326.5,400.5C 322.383,401.486 318.383,402.819 314.5,404.5C 316.078,405.298 317.744,405.798 319.5,406C 314.418,406.517 309.418,407.351 304.5,408.5C 304.5,410.167 304.5,411.833 304.5,413.5C 299.786,413.173 295.12,413.507 290.5,414.5C 284.22,416.855 277.887,419.021 271.5,421C 270.313,422.019 269.313,423.186 268.5,424.5C 267.311,425.429 265.978,425.762 264.5,425.5C 264.5,426.5 264.5,427.5 264.5,428.5C 263.07,428.579 261.736,428.246 260.5,427.5C 260.891,428.718 260.224,429.552 258.5,430C 259.167,430.333 259.833,430.667 260.5,431C 256.445,433.208 252.279,433.708 248,432.5C 246.482,433.163 245.315,434.163 244.5,435.5C 224.724,437.963 205.058,440.963 185.5,444.5C 187.277,443.4 189.277,442.566 191.5,442C 201.54,440.496 211.54,438.829 221.5,437C 221.626,435.026 221.792,432.859 222,430.5C 222.308,431.308 222.808,431.975 223.5,432.5C 226.925,429.238 228.258,425.238 227.5,420.5C 230.436,419.594 233.436,418.928 236.5,418.5C 236.5,416.833 236.5,415.167 236.5,413.5C 240.171,413.798 242.837,412.298 244.5,409C 245.5,408.667 246.5,408.333 247.5,408C 248.423,405.959 248.756,403.792 248.5,401.5C 251.025,400.36 253.692,399.693 256.5,399.5C 256.5,398.5 256.5,397.5 256.5,396.5C 259.564,396.072 262.564,395.406 265.5,394.5C 265.329,391.203 265.995,390.869 267.5,393.5C 273.138,391.412 278.804,389.246 284.5,387C 283.062,386.781 281.729,386.281 280.5,385.5C 283.684,383.89 287.017,382.89 290.5,382.5C 290.5,380.833 290.5,379.167 290.5,377.5C 297.049,377.32 300.215,373.987 300,367.5C 300.494,369.134 300.66,370.801 300.5,372.5C 301.5,372.5 302.5,372.5 303.5,372.5C 303.042,368.083 304.708,364.75 308.5,362.5C 309.314,360.234 309.814,357.9 310,355.5C 311.11,353.963 312.61,353.297 314.5,353.5C 314.094,345.083 314.594,336.749 316,328.5C 316.667,329.833 317.333,329.833 318,328.5C 318.957,321.522 319.791,314.522 320.5,307.5C 322.146,306.221 323.313,304.555 324,302.5C 325.668,305.21 326.501,305.043 326.5,302C 326.682,299.696 326.016,299.196 324.5,300.5C 323.757,299.092 322.923,297.759 322,296.5C 321.333,289.5 321.333,282.5 322,275.5C 324.725,274.358 327.225,272.858 329.5,271C 328.594,269.301 328.261,267.467 328.5,265.5C 329.5,265.5 330.5,265.5 331.5,265.5C 332.296,259.183 332.963,252.85 333.5,246.5C 334.5,246.5 335.5,246.5 336.5,246.5C 337.865,238.406 339.198,230.406 340.5,222.5C 341.5,222.5 342.5,222.5 343.5,222.5C 345.16,208.356 348.493,194.523 353.5,181C 355.03,173.853 356.363,166.686 357.5,159.5C 358.5,159.5 359.5,159.5 360.5,159.5C 361.167,152.833 361.833,146.167 362.5,139.5C 363.5,139.5 364.5,139.5 365.5,139.5C 366.304,133.977 367.304,128.477 368.5,123C 368.498,119.321 367.165,116.321 364.5,114C 365.167,113.667 365.833,113.333 366.5,113C 361.806,113.5 357.306,113 353,111.5C 351.604,112.394 350.104,113.061 348.5,113.5C 344.201,112.458 339.868,112.291 335.5,113C 305.356,116.445 275.356,119.945 245.5,123.5C 230.365,124.367 215.365,126.033 200.5,128.5C 199.081,127.549 197.415,127.216 195.5,127.5C 194.737,126.732 193.737,126.232 192.5,126C 198.447,125.438 204.281,124.604 210,123.5C 211.107,123.585 212.107,123.919 213,124.5C 217.334,122.055 221.834,120.888 226.5,121C 225.289,120.107 225.289,119.274 226.5,118.5C 227.446,118.987 228.446,119.32 229.5,119.5C 245.49,117.334 261.49,115.167 277.5,113C 278.667,112.5 279.5,111.667 280,110.5C 283.777,111.299 287.61,111.132 291.5,110C 292.219,107.444 293.886,106.277 296.5,106.5C 296.693,102.551 297.193,102.551 298,106.5C 298.93,104.448 300.43,102.948 302.5,102C 301.5,101.667 300.5,101.333 299.5,101C 304.147,101.555 307.314,99.7213 309,95.5C 310.699,96.4061 312.533,96.7394 314.5,96.5C 314.5,95.1667 314.5,93.8333 314.5,92.5C 316.199,92.6602 317.866,92.4935 319.5,92C 316.569,91.2393 314.903,89.4059 314.5,86.5C 310.179,85.7743 306.012,84.4409 302,82.5C 297.822,84.2188 293.989,83.7188 290.5,81C 284.5,80.6667 278.5,80.3333 272.5,80C 258.453,79.8047 244.62,79.638 231,79.5C 222.662,80.9719 214.162,81.4719 205.5,81C 211.025,80.4804 216.358,79.6471 221.5,78.5C 247.408,75.4522 273.408,73.6189 299.5,73C 328.124,79.7317 354.624,91.2317 379,107.5C 379.833,211.334 379.666,315.001 378.5,418.5 Z"/></g>
<g><path style="opacity:1" fill="#e4e4e4" d="M 185.5,444.5 C 182.287,444.81 179.287,444.477 176.5,443.5C 176.5,392.5 176.5,341.5 176.5,290.5C 176.5,259.167 176.5,227.833 176.5,196.5C 177.825,197.953 178.658,197.619 179,195.5C 179.607,209.886 180.44,224.386 181.5,239C 180.015,244.92 180.182,250.754 182,256.5C 182.71,255.027 183.876,254.36 185.5,254.5C 187.727,257.819 189.393,261.486 190.5,265.5C 191.5,265.5 192.5,265.5 193.5,265.5C 193.5,266.5 193.5,267.5 193.5,268.5C 197.993,268.817 201.326,270.984 203.5,275C 208.214,275.383 211.547,277.717 213.5,282C 205.438,287.89 198.105,294.723 191.5,302.5C 192.515,303.681 193.681,304.681 195,305.5C 195.962,303.776 197.295,301.776 199,299.5C 199.333,299.833 199.667,300.167 200,300.5C 202.041,298.35 204.541,297.35 207.5,297.5C 207.5,295.167 207.5,292.833 207.5,290.5C 209.798,289.69 212.132,288.856 214.5,288C 215.428,286.024 216.595,284.191 218,282.5C 220.757,284.603 223.59,286.603 226.5,288.5C 227.429,287.311 227.762,285.978 227.5,284.5C 240.082,282.674 252.748,281.174 265.5,280C 268.093,279.463 270.593,278.63 273,277.5C 274.895,278.509 276.728,278.675 278.5,278C 276.963,279.11 276.297,280.61 276.5,282.5C 272.533,282.949 270.7,284.949 271,288.5C 268.667,287.167 267.667,287.833 268,290.5C 269.726,291.576 271.559,291.743 273.5,291C 274.637,288.543 276.137,286.376 278,284.5C 278.333,284.833 278.667,285.167 279,285.5C 282.808,283.186 285.308,279.853 286.5,275.5C 287.5,274.167 288.5,274.167 289.5,275.5C 291.054,273.067 291.72,270.4 291.5,267.5C 287.043,269.428 283.21,272.428 280,276.5C 278.072,267.23 278.239,257.897 280.5,248.5C 285.084,246.973 289.751,245.64 294.5,244.5C 297.113,229.103 300.113,213.769 303.5,198.5C 304.66,196.927 305.66,195.261 306.5,193.5C 306.566,191.734 305.732,190.734 304,190.5C 301.873,191.96 300.04,193.794 298.5,196C 297.207,196.49 295.873,196.657 294.5,196.5C 294.5,193.833 294.5,191.167 294.5,188.5C 295.5,188.5 296.5,188.5 297.5,188.5C 298.167,185.167 298.833,181.833 299.5,178.5C 300.5,178.5 301.5,178.5 302.5,178.5C 302.691,175.017 303.357,171.684 304.5,168.5C 305.5,168.5 306.5,168.5 307.5,168.5C 308.937,163.972 309.604,159.306 309.5,154.5C 310.833,154.5 312.167,154.5 313.5,154.5C 313.899,149.351 314.899,144.351 316.5,139.5C 317.5,139.5 318.5,139.5 319.5,139.5C 320.406,136.564 321.072,133.564 321.5,130.5C 322.5,130.5 323.5,130.5 324.5,130.5C 323.92,126.19 323.586,121.857 323.5,117.5C 319.001,115.821 314.834,116.487 311,119.5C 308.532,119.248 306.032,118.914 303.5,118.5C 300.317,119.848 297.151,120.181 294,119.5C 277.853,121.953 261.686,123.287 245.5,123.5C 275.356,119.945 305.356,116.445 335.5,113C 339.868,112.291 344.201,112.458 348.5,113.5C 350.104,113.061 351.604,112.394 353,111.5C 357.306,113 361.806,113.5 366.5,113C 365.833,113.333 365.167,113.667 364.5,114C 367.165,116.321 368.498,119.321 368.5,123C 367.304,128.477 366.304,133.977 365.5,139.5C 364.5,139.5 363.5,139.5 362.5,139.5C 361.833,146.167 361.167,152.833 360.5,159.5C 359.5,159.5 358.5,159.5 357.5,159.5C 356.363,166.686 355.03,173.853 353.5,181C 348.493,194.523 345.16,208.356 343.5,222.5C 342.5,222.5 341.5,222.5 340.5,222.5C 339.198,230.406 337.865,238.406 336.5,246.5C 335.5,246.5 334.5,246.5 333.5,246.5C 332.963,252.85 332.296,259.183 331.5,265.5C 330.5,265.5 329.5,265.5 328.5,265.5C 328.261,267.467 328.594,269.301 329.5,271C 327.225,272.858 324.725,274.358 322,275.5C 321.333,282.5 321.333,289.5 322,296.5C 322.923,297.759 323.757,299.092 324.5,300.5C 326.016,299.196 326.682,299.696 326.5,302C 326.501,305.043 325.668,305.21 324,302.5C 323.313,304.555 322.146,306.221 320.5,307.5C 319.791,314.522 318.957,321.522 318,328.5C 317.333,329.833 316.667,329.833 316,328.5C 314.594,336.749 314.094,345.083 314.5,353.5C 312.61,353.297 311.11,353.963 310,355.5C 309.814,357.9 309.314,360.234 308.5,362.5C 304.708,364.75 303.042,368.083 303.5,372.5C 302.5,372.5 301.5,372.5 300.5,372.5C 300.66,370.801 300.494,369.134 300,367.5C 300.215,373.987 297.049,377.32 290.5,377.5C 290.5,379.167 290.5,380.833 290.5,382.5C 287.017,382.89 283.684,383.89 280.5,385.5C 281.729,386.281 283.062,386.781 284.5,387C 278.804,389.246 273.138,391.412 267.5,393.5C 265.995,390.869 265.329,391.203 265.5,394.5C 262.564,395.406 259.564,396.072 256.5,396.5C 256.5,397.5 256.5,398.5 256.5,399.5C 253.692,399.693 251.025,400.36 248.5,401.5C 248.756,403.792 248.423,405.959 247.5,408C 246.5,408.333 245.5,408.667 244.5,409C 242.837,412.298 240.171,413.798 236.5,413.5C 236.5,415.167 236.5,416.833 236.5,418.5C 233.436,418.928 230.436,419.594 227.5,420.5C 228.258,425.238 226.925,429.238 223.5,432.5C 222.808,431.975 222.308,431.308 222,430.5C 221.792,432.859 221.626,435.026 221.5,437C 211.54,438.829 201.54,440.496 191.5,442C 189.277,442.566 187.277,443.4 185.5,444.5 Z"/></g>
<g><path style="opacity:1" fill="#e9e9e9" d="M 176.5,196.5 C 177.265,174.432 177.265,152.432 176.5,130.5C 184.494,129.773 192.494,129.107 200.5,128.5C 215.365,126.033 230.365,124.367 245.5,123.5C 261.686,123.287 277.853,121.953 294,119.5C 297.151,120.181 300.317,119.848 303.5,118.5C 306.032,118.914 308.532,119.248 311,119.5C 314.834,116.487 319.001,115.821 323.5,117.5C 323.586,121.857 323.92,126.19 324.5,130.5C 323.5,130.5 322.5,130.5 321.5,130.5C 321.072,133.564 320.406,136.564 319.5,139.5C 318.5,139.5 317.5,139.5 316.5,139.5C 314.899,144.351 313.899,149.351 313.5,154.5C 312.167,154.5 310.833,154.5 309.5,154.5C 309.604,159.306 308.937,163.972 307.5,168.5C 306.5,168.5 305.5,168.5 304.5,168.5C 303.357,171.684 302.691,175.017 302.5,178.5C 301.5,178.5 300.5,178.5 299.5,178.5C 298.833,181.833 298.167,185.167 297.5,188.5C 296.5,188.5 295.5,188.5 294.5,188.5C 294.5,191.167 294.5,193.833 294.5,196.5C 295.873,196.657 297.207,196.49 298.5,196C 300.04,193.794 301.873,191.96 304,190.5C 305.732,190.734 306.566,191.734 306.5,193.5C 305.66,195.261 304.66,196.927 303.5,198.5C 300.113,213.769 297.113,229.103 294.5,244.5C 289.751,245.64 285.084,246.973 280.5,248.5C 278.239,257.897 278.072,267.23 280,276.5C 283.21,272.428 287.043,269.428 291.5,267.5C 291.72,270.4 291.054,273.067 289.5,275.5C 288.5,274.167 287.5,274.167 286.5,275.5C 285.308,279.853 282.808,283.186 279,285.5C 278.667,285.167 278.333,284.833 278,284.5C 276.137,286.376 274.637,288.543 273.5,291C 271.559,291.743 269.726,291.576 268,290.5C 267.667,287.833 268.667,287.167 271,288.5C 270.7,284.949 272.533,282.949 276.5,282.5C 276.297,280.61 276.963,279.11 278.5,278C 276.728,278.675 274.895,278.509 273,277.5C 270.593,278.63 268.093,279.463 265.5,280C 252.748,281.174 240.082,282.674 227.5,284.5C 227.762,285.978 227.429,287.311 226.5,288.5C 223.59,286.603 220.757,284.603 218,282.5C 216.595,284.191 215.428,286.024 214.5,288C 212.132,288.856 209.798,289.69 207.5,290.5C 207.5,292.833 207.5,295.167 207.5,297.5C 204.541,297.35 202.041,298.35 200,300.5C 199.667,300.167 199.333,299.833 199,299.5C 197.295,301.776 195.962,303.776 195,305.5C 193.681,304.681 192.515,303.681 191.5,302.5C 198.105,294.723 205.438,287.89 213.5,282C 211.547,277.717 208.214,275.383 203.5,275C 201.326,270.984 197.993,268.817 193.5,268.5C 193.5,267.5 193.5,266.5 193.5,265.5C 192.5,265.5 191.5,265.5 190.5,265.5C 189.393,261.486 187.727,257.819 185.5,254.5C 183.876,254.36 182.71,255.027 182,256.5C 180.182,250.754 180.015,244.92 181.5,239C 180.44,224.386 179.607,209.886 179,195.5C 178.658,197.619 177.825,197.953 176.5,196.5 Z"/></g>
<g><path style="opacity:0.991" fill="#d1d1d1" d="M 174.5,441.5 C 173.373,440.878 172.373,440.045 171.5,439C 171.659,422.64 171.659,406.14 171.5,389.5C 168.957,377.063 166.624,365.063 164.5,353.5C 162.408,353.439 160.908,352.439 160,350.5C 155.682,354.767 150.516,356.267 144.5,355C 142.971,353.05 141.804,350.883 141,348.5C 140.506,346.866 140.34,345.199 140.5,343.5C 139.448,343.649 138.448,343.483 137.5,343C 136.884,340.821 135.717,338.988 134,337.5C 134.01,332.359 132.177,328.025 128.5,324.5C 128.623,322.622 128.623,320.789 128.5,319C 126.511,316.197 123.844,314.364 120.5,313.5C 120.935,311.124 122.269,308.791 124.5,306.5C 122.946,304.102 121.612,301.602 120.5,299C 122.044,296.635 122.711,294.301 122.5,292C 120.67,283.537 119.003,275.037 117.5,266.5C 118.087,264.727 118.42,262.894 118.5,261C 117.19,240.447 115.357,219.947 113,199.5C 111.817,200.731 110.651,200.731 109.5,199.5C 110.025,198.808 110.692,198.308 111.5,198C 110.339,195.279 111.006,192.946 113.5,191C 110.467,171.765 107.634,152.599 105,133.5C 104.83,142.343 104.33,151.01 103.5,159.5C 103.5,155.167 103.5,150.833 103.5,146.5C 103.5,141.833 103.5,137.167 103.5,132.5C 104.166,128.647 104.833,124.647 105.5,120.5C 105.481,125.231 106.814,129.731 109.5,134C 109.355,134.772 109.022,135.439 108.5,136C 110.394,137.079 110.727,138.413 109.5,140C 110.313,143.512 111.313,147.012 112.5,150.5C 113.033,159.288 114.2,167.955 116,176.5C 117.033,182.234 116.533,187.734 114.5,193C 114.944,194.762 115.444,194.595 116,192.5C 117.044,193.623 117.71,194.956 118,196.5C 119.86,211.811 121.86,227.145 124,242.5C 125.13,246.315 126.297,250.149 127.5,254C 127.294,255.366 126.96,256.699 126.5,258C 127.482,258.381 128.148,259.214 128.5,260.5C 127.504,263.797 127.337,267.131 128,270.5C 130.511,276.395 132.011,282.561 132.5,289C 132.063,292.116 132.063,295.116 132.5,298C 131.536,299.964 130.203,301.63 128.5,303C 130.116,307.041 131.449,307.208 132.5,303.5C 133.873,303.343 135.207,303.51 136.5,304C 135.578,307.459 135.745,310.959 137,314.5C 140.005,317.725 142.171,321.392 143.5,325.5C 147.192,327.019 150.859,328.353 154.5,329.5C 154.5,328.5 154.5,327.5 154.5,326.5C 158.136,325.979 161.636,324.979 165,323.5C 165.374,324.416 165.874,325.25 166.5,326C 164.507,329.191 162.174,332.191 159.5,335C 160.333,335.833 161.167,336.667 162,337.5C 162.617,336.551 162.451,335.718 161.5,335C 163.329,334.727 164.829,333.893 166,332.5C 167.113,333.711 168.28,333.711 169.5,332.5C 170.113,337.786 171.113,342.953 172.5,348C 171.903,349.062 171.57,350.228 171.5,351.5C 174.16,381.642 175.16,411.642 174.5,441.5 Z"/></g>
<g><path style="opacity:1" fill="#7d7d7d" d="M 171.5,126.5 C 173.674,126.75 175.341,127.75 176.5,129.5C 174.326,129.25 172.659,128.25 171.5,126.5 Z"/></g>
<g><path style="opacity:1" fill="#9c9c9c" d="M 195.5,127.5 C 197.415,127.216 199.081,127.549 200.5,128.5C 192.494,129.107 184.494,129.773 176.5,130.5C 176.5,130.167 176.5,129.833 176.5,129.5C 182.814,128.714 189.147,128.047 195.5,127.5 Z"/></g>
<g><path style="opacity:0.986" fill="#cbcbcb" d="M 174.5,441.5 C 174.833,442.5 175.5,443.167 176.5,443.5C 179.287,444.477 182.287,444.81 185.5,444.5C 205.058,440.963 224.724,437.963 244.5,435.5C 254.839,433.778 265.172,431.945 275.5,430C 309.895,425.711 344.229,421.211 378.5,416.5C 378.5,417.167 378.5,417.833 378.5,418.5C 312.777,428.437 246.944,437.77 181,446.5C 176.308,445.978 172.808,443.645 170.5,439.5C 170.443,438.391 170.11,437.391 169.5,436.5C 169.799,425.494 168.966,414.494 167,403.5C 165.873,400.623 165.206,397.623 165,394.5C 164.552,392.776 163.718,392.109 162.5,392.5C 163.022,391.393 163.355,390.226 163.5,389C 162.588,385.184 161.754,381.351 161,377.5C 160.882,379.573 159.882,380.907 158,381.5C 153.527,380.208 149.36,378.208 145.5,375.5C 144.914,375.709 144.414,376.043 144,376.5C 142.192,373.562 140.692,370.562 139.5,367.5C 138.325,367.719 137.325,367.386 136.5,366.5C 134.506,361.054 131.173,356.554 126.5,353C 129.096,351.203 128.763,349.869 125.5,349C 125.833,348.667 126.167,348.333 126.5,348C 123.834,342.35 121.168,336.683 118.5,331C 119.287,325.913 118.287,321.08 115.5,316.5C 116.362,314.913 117.029,313.246 117.5,311.5C 116.625,307.416 115.458,303.416 114,299.5C 113.533,294.663 113.033,289.83 112.5,285C 112.533,272.83 112.533,260.663 112.5,248.5C 111.663,238.266 110.663,228.099 109.5,218C 110.022,217.439 110.355,216.772 110.5,216C 109.873,212.483 109.207,208.983 108.5,205.5C 108.709,204.914 109.043,204.414 109.5,204C 104.874,202.263 104.374,199.763 108,196.5C 108.288,193.47 108.455,190.636 108.5,188C 107.251,180.54 106.085,173.04 105,165.5C 104.5,179.163 104.333,192.829 104.5,206.5C 103.502,237.662 103.168,268.996 103.5,300.5C 103.5,317.5 103.5,334.5 103.5,351.5C 103.5,358.5 103.5,365.5 103.5,372.5C 102.201,301.659 102.201,230.659 103.5,159.5C 104.33,151.01 104.83,142.343 105,133.5C 107.634,152.599 110.467,171.765 113.5,191C 111.006,192.946 110.339,195.279 111.5,198C 110.692,198.308 110.025,198.808 109.5,199.5C 110.651,200.731 111.817,200.731 113,199.5C 115.357,219.947 117.19,240.447 118.5,261C 118.42,262.894 118.087,264.727 117.5,266.5C 119.003,275.037 120.67,283.537 122.5,292C 122.711,294.301 122.044,296.635 120.5,299C 121.612,301.602 122.946,304.102 124.5,306.5C 122.269,308.791 120.935,311.124 120.5,313.5C 123.844,314.364 126.511,316.197 128.5,319C 128.623,320.789 128.623,322.622 128.5,324.5C 132.177,328.025 134.01,332.359 134,337.5C 135.717,338.988 136.884,340.821 137.5,343C 138.448,343.483 139.448,343.649 140.5,343.5C 140.34,345.199 140.506,346.866 141,348.5C 141.804,350.883 142.971,353.05 144.5,355C 150.516,356.267 155.682,354.767 160,350.5C 160.908,352.439 162.408,353.439 164.5,353.5C 166.624,365.063 168.957,377.063 171.5,389.5C 171.659,406.14 171.659,422.64 171.5,439C 172.373,440.045 173.373,440.878 174.5,441.5 Z"/></g>
<g><path style="opacity:0.984" fill="#d8d8d8" d="M 378.5,416.5 C 344.229,421.211 309.895,425.711 275.5,430C 265.172,431.945 254.839,433.778 244.5,435.5C 245.315,434.163 246.482,433.163 248,432.5C 252.279,433.708 256.445,433.208 260.5,431C 259.833,430.667 259.167,430.333 258.5,430C 260.224,429.552 260.891,428.718 260.5,427.5C 261.736,428.246 263.07,428.579 264.5,428.5C 264.5,427.5 264.5,426.5 264.5,425.5C 265.978,425.762 267.311,425.429 268.5,424.5C 269.313,423.186 270.313,422.019 271.5,421C 277.887,419.021 284.22,416.855 290.5,414.5C 295.12,413.507 299.786,413.173 304.5,413.5C 304.5,411.833 304.5,410.167 304.5,408.5C 309.418,407.351 314.418,406.517 319.5,406C 317.744,405.798 316.078,405.298 314.5,404.5C 318.383,402.819 322.383,401.486 326.5,400.5C 328.584,392.327 331.25,384.327 334.5,376.5C 336.659,375.215 337.326,373.548 336.5,371.5C 337.976,370.12 338.976,368.453 339.5,366.5C 338.355,365.109 338.355,363.776 339.5,362.5C 340.736,363.246 342.07,363.579 343.5,363.5C 343.336,360.813 343.503,358.146 344,355.5C 345.11,353.963 346.61,353.297 348.5,353.5C 348.682,351.409 348.348,349.409 347.5,347.5C 348.903,343.968 349.903,340.302 350.5,336.5C 351.736,337.246 353.07,337.579 354.5,337.5C 354.227,335.549 354.893,334.049 356.5,333C 355.333,332.5 354.5,331.667 354,330.5C 353.829,325.136 353.329,319.802 352.5,314.5C 351.809,319.383 351.143,324.216 350.5,329C 351.308,329.308 351.975,329.808 352.5,330.5C 351.478,331.354 350.645,332.354 350,333.5C 349.362,332.391 348.862,331.225 348.5,330C 349.834,322.009 350.167,314.009 349.5,306C 348.939,302.552 350.106,301.385 353,302.5C 354.349,300.188 355.182,297.688 355.5,295C 356.686,286.022 357.352,277.189 357.5,268.5C 359.606,268.321 361.272,267.321 362.5,265.5C 362.291,264.914 361.957,264.414 361.5,264C 362.701,263.097 363.535,261.931 364,260.5C 364.414,260.957 364.914,261.291 365.5,261.5C 367.133,259.497 369.133,258.164 371.5,257.5C 371.5,256.167 371.5,254.833 371.5,253.5C 369.856,253.714 368.356,253.38 367,252.5C 365.907,254.349 364.574,256.016 363,257.5C 362.833,257 362.667,256.5 362.5,256C 363.573,254.584 363.573,253.25 362.5,252C 363.652,249.851 365.152,248.018 367,246.5C 367.498,243.183 367.665,239.85 367.5,236.5C 369.167,236.5 370.833,236.5 372.5,236.5C 375.987,219.061 377.82,201.394 378,183.5C 378.5,261.166 378.667,338.833 378.5,416.5 Z"/></g>
<g><path style="opacity:0.998" fill="#c4c4c4" d="M 169.5,436.5 C 164.682,433.694 163.015,429.694 164.5,424.5C 163.28,417.52 162.28,410.52 161.5,403.5C 160.448,403.649 159.448,403.483 158.5,403C 159.634,401.984 159.301,401.317 157.5,401C 158.451,400.282 158.617,399.449 158,398.5C 154.888,397.482 152.388,395.648 150.5,393C 147.883,392.178 145.216,391.678 142.5,391.5C 142.803,388.412 141.47,386.746 138.5,386.5C 138.392,384.217 137.559,382.217 136,380.5C 135,380.167 134,379.833 133,379.5C 133,378.167 133,376.833 133,375.5C 131.899,373.606 130.566,372.939 129,373.5C 128.057,370.891 126.39,368.891 124,367.5C 122.921,364.937 122.421,362.271 122.5,359.5C 121.178,359.33 120.011,359.663 119,360.5C 117.404,354.625 116.404,348.625 116,342.5C 115.333,341.167 114.667,339.833 114,338.5C 111.765,314.481 110.265,290.481 109.5,266.5C 105.5,266.167 105.5,265.833 109.5,265.5C 109.725,254.94 109.058,244.44 107.5,234C 107.978,225.515 107.478,217.015 106,208.5C 105.722,207.584 105.222,206.918 104.5,206.5C 104.333,192.829 104.5,179.163 105,165.5C 106.085,173.04 107.251,180.54 108.5,188C 108.455,190.636 108.288,193.47 108,196.5C 104.374,199.763 104.874,202.263 109.5,204C 109.043,204.414 108.709,204.914 108.5,205.5C 109.207,208.983 109.873,212.483 110.5,216C 110.355,216.772 110.022,217.439 109.5,218C 110.663,228.099 111.663,238.266 112.5,248.5C 112.533,260.663 112.533,272.83 112.5,285C 113.033,289.83 113.533,294.663 114,299.5C 115.458,303.416 116.625,307.416 117.5,311.5C 117.029,313.246 116.362,314.913 115.5,316.5C 118.287,321.08 119.287,325.913 118.5,331C 121.168,336.683 123.834,342.35 126.5,348C 126.167,348.333 125.833,348.667 125.5,349C 128.763,349.869 129.096,351.203 126.5,353C 131.173,356.554 134.506,361.054 136.5,366.5C 137.325,367.386 138.325,367.719 139.5,367.5C 140.692,370.562 142.192,373.562 144,376.5C 144.414,376.043 144.914,375.709 145.5,375.5C 149.36,378.208 153.527,380.208 158,381.5C 159.882,380.907 160.882,379.573 161,377.5C 161.754,381.351 162.588,385.184 163.5,389C 163.355,390.226 163.022,391.393 162.5,392.5C 163.718,392.109 164.552,392.776 165,394.5C 165.206,397.623 165.873,400.623 167,403.5C 168.966,414.494 169.799,425.494 169.5,436.5 Z"/></g>
<g><path style="opacity:0.996" fill="#bebebe" d="M 104.5,206.5 C 105.222,206.918 105.722,207.584 106,208.5C 107.478,217.015 107.978,225.515 107.5,234C 109.058,244.44 109.725,254.94 109.5,265.5C 105.5,265.833 105.5,266.167 109.5,266.5C 110.265,290.481 111.765,314.481 114,338.5C 114.667,339.833 115.333,341.167 116,342.5C 116.404,348.625 117.404,354.625 119,360.5C 120.011,359.663 121.178,359.33 122.5,359.5C 122.421,362.271 122.921,364.937 124,367.5C 126.39,368.891 128.057,370.891 129,373.5C 130.566,372.939 131.899,373.606 133,375.5C 133,376.833 133,378.167 133,379.5C 134,379.833 135,380.167 136,380.5C 137.559,382.217 138.392,384.217 138.5,386.5C 141.47,386.746 142.803,388.412 142.5,391.5C 145.216,391.678 147.883,392.178 150.5,393C 152.388,395.648 154.888,397.482 158,398.5C 158.617,399.449 158.451,400.282 157.5,401C 159.301,401.317 159.634,401.984 158.5,403C 159.448,403.483 160.448,403.649 161.5,403.5C 162.28,410.52 163.28,417.52 164.5,424.5C 163.015,429.694 164.682,433.694 169.5,436.5C 170.11,437.391 170.443,438.391 170.5,439.5C 165.833,435.5 161.5,431.167 157.5,426.5C 157.678,425.305 158.011,424.138 158.5,423C 157.083,419.253 155.916,415.419 155,411.5C 153.493,415.236 152.66,415.236 152.5,411.5C 151.5,411.5 150.5,411.5 149.5,411.5C 148.886,416.603 147.552,416.77 145.5,412C 146.945,410.29 147.778,408.456 148,406.5C 145.173,404.506 142.673,402.172 140.5,399.5C 139.914,399.709 139.414,400.043 139,400.5C 138.585,396.982 136.752,394.649 133.5,393.5C 133.29,389.62 131.29,387.953 127.5,388.5C 127.649,387.448 127.483,386.448 127,385.5C 124.826,383.256 122.826,380.923 121,378.5C 119.43,379.614 118.097,380.947 117,382.5C 117.046,380.687 116.88,379.021 116.5,377.5C 117.167,376.833 117.833,376.167 118.5,375.5C 117.6,371.355 115.934,367.188 113.5,363C 113.957,362.586 114.291,362.086 114.5,361.5C 114.077,358.397 113.077,355.564 111.5,353C 112.059,352.275 112.392,351.442 112.5,350.5C 111.097,346.283 110.264,341.949 110,337.5C 108.808,314.615 107.641,291.948 106.5,269.5C 105.808,268.975 105.308,268.308 105,267.5C 104.83,278.674 104.33,289.674 103.5,300.5C 103.168,268.996 103.502,237.662 104.5,206.5 Z"/></g>
<g><path style="opacity:0.324" fill="#a9a9a9" d="M 144.5,413.5 C 134.057,404.228 123.724,394.728 113.5,385C 109.169,381.516 105.836,377.349 103.5,372.5C 103.5,365.5 103.5,358.5 103.5,351.5C 104.326,346.684 104.826,341.684 105,336.5C 105.874,344.756 107.04,352.923 108.5,361C 108.55,365.939 108.55,370.939 108.5,376C 119.667,388.5 131.5,400.333 144,411.5C 144.464,412.094 144.631,412.761 144.5,413.5 Z"/></g>
<g><path style="opacity:0.982" fill="#b7b7b7" d="M 157.5,426.5 C 152.833,422.5 148.5,418.167 144.5,413.5C 144.631,412.761 144.464,412.094 144,411.5C 131.5,400.333 119.667,388.5 108.5,376C 108.55,370.939 108.55,365.939 108.5,361C 107.04,352.923 105.874,344.756 105,336.5C 104.826,341.684 104.326,346.684 103.5,351.5C 103.5,334.5 103.5,317.5 103.5,300.5C 104.33,289.674 104.83,278.674 105,267.5C 105.308,268.308 105.808,268.975 106.5,269.5C 107.641,291.948 108.808,314.615 110,337.5C 110.264,341.949 111.097,346.283 112.5,350.5C 112.392,351.442 112.059,352.275 111.5,353C 113.077,355.564 114.077,358.397 114.5,361.5C 114.291,362.086 113.957,362.586 113.5,363C 115.934,367.188 117.6,371.355 118.5,375.5C 117.833,376.167 117.167,376.833 116.5,377.5C 116.88,379.021 117.046,380.687 117,382.5C 118.097,380.947 119.43,379.614 121,378.5C 122.826,380.923 124.826,383.256 127,385.5C 127.483,386.448 127.649,387.448 127.5,388.5C 131.29,387.953 133.29,389.62 133.5,393.5C 136.752,394.649 138.585,396.982 139,400.5C 139.414,400.043 139.914,399.709 140.5,399.5C 142.673,402.172 145.173,404.506 148,406.5C 147.778,408.456 146.945,410.29 145.5,412C 147.552,416.77 148.886,416.603 149.5,411.5C 150.5,411.5 151.5,411.5 152.5,411.5C 152.66,415.236 153.493,415.236 155,411.5C 155.916,415.419 157.083,419.253 158.5,423C 158.011,424.138 157.678,425.305 157.5,426.5 Z"/></g>
</svg>
