<?xml version="1.0" encoding="UTF-8"?>
<!DOCTYPE svg PUBLIC "-//W3C//DTD SVG 1.1//EN" "http://www.w3.org/Graphics/SVG/1.1/DTD/svg11.dtd">
<svg xmlns="http://www.w3.org/2000/svg" version="1.1" width="416px" height="416px" style="shape-rendering:geometricPrecision; text-rendering:geometricPrecision; image-rendering:optimizeQuality; fill-rule:evenodd; clip-rule:evenodd" xmlns:xlink="http://www.w3.org/1999/xlink">
<g><path style="opacity:0.996" fill="#f1efef" d="M 370.5,102.5 C 369.9,124.654 369.233,146.654 368.5,168.5C 368.5,165.5 368.5,162.5 368.5,159.5C 368.777,156.552 368.444,153.719 367.5,151C 284.834,150.5 202.167,150.333 119.5,150.5C 119.632,153.57 119.299,156.57 118.5,159.5C 118.5,184.5 118.5,209.5 118.5,234.5C 118.5,238.833 118.5,243.167 118.5,247.5C 118.806,250.385 118.473,253.052 117.5,255.5C 117.5,212.833 117.5,170.167 117.5,127.5C 144.717,123.92 172.05,120.92 199.5,118.5C 225.569,115.825 251.569,112.658 277.5,109C 274.833,108.667 272.167,108.333 269.5,108C 269.981,104.254 269.981,100.087 269.5,95.5C 270.552,95.6495 271.552,95.4828 272.5,95C 270.833,94.6667 269.167,94.3333 267.5,94C 268.5,93.6667 269.5,93.3333 270.5,93C 270.167,92.6667 269.833,92.3333 269.5,92C 260.832,91.7378 252.166,91.9044 243.5,92.5C 265.993,89.917 288.659,87.5836 311.5,85.5C 330.907,90.0184 350.24,94.8517 369.5,100C 370.252,100.671 370.586,101.504 370.5,102.5 Z"/></g>
<g><path style="opacity:0.987" fill="#ebeaea" d="M 199.5,118.5 C 196.423,117.624 193.423,117.291 190.5,117.5C 192.423,116.692 194.423,116.192 196.5,116C 194.833,115.667 193.167,115.333 191.5,115C 192.672,114.581 193.672,113.915 194.5,113C 194.123,109.087 193.123,105.42 191.5,102C 195.737,100.681 200.071,99.6813 204.5,99C 202.618,98.8019 200.952,98.3019 199.5,97.5C 202.167,96.8333 204.833,96.1667 207.5,95.5C 219.439,94.0209 231.439,93.0209 243.5,92.5C 252.166,91.9044 260.832,91.7378 269.5,92C 269.833,92.3333 270.167,92.6667 270.5,93C 269.5,93.3333 268.5,93.6667 267.5,94C 269.167,94.3333 270.833,94.6667 272.5,95C 271.552,95.4828 270.552,95.6495 269.5,95.5C 269.981,100.087 269.981,104.254 269.5,108C 272.167,108.333 274.833,108.667 277.5,109C 251.569,112.658 225.569,115.825 199.5,118.5 Z"/></g>
<g><path style="opacity:0.042" fill="#fbfafb" d="M 207.5,95.5 C 204.833,96.1667 202.167,96.8333 199.5,97.5C 181.192,99.1641 162.859,100.497 144.5,101.5C 165.32,99.1244 186.32,97.1244 207.5,95.5 Z"/></g>
<g><path style="opacity:0.986" fill="#e6e5e5" d="M 199.5,97.5 C 200.952,98.3019 202.618,98.8019 204.5,99C 200.071,99.6813 195.737,100.681 191.5,102C 193.123,105.42 194.123,109.087 194.5,113C 193.672,113.915 192.672,114.581 191.5,115C 193.167,115.333 194.833,115.667 196.5,116C 194.423,116.192 192.423,116.692 190.5,117.5C 193.423,117.291 196.423,117.624 199.5,118.5C 172.05,120.92 144.717,123.92 117.5,127.5C 104.999,120.217 91.9995,113.884 78.5,108.5C 78.6107,107.883 78.944,107.383 79.5,107C 90.1524,105.909 100.819,105.075 111.5,104.5C 122.393,104.372 133.06,103.372 143.5,101.5C 143.833,101.5 144.167,101.5 144.5,101.5C 162.859,100.497 181.192,99.1641 199.5,97.5 Z"/></g>
<g><path style="opacity:0.039" fill="#fdfdfd" d="M 143.5,101.5 C 133.06,103.372 122.393,104.372 111.5,104.5C 121.967,102.912 132.634,101.912 143.5,101.5 Z"/></g>
<g><path style="opacity:0.989" fill="#e0dedc" d="M 78.5,108.5 C 91.9995,113.884 104.999,120.217 117.5,127.5C 117.5,170.167 117.5,212.833 117.5,255.5C 117.5,258.167 117.5,260.833 117.5,263.5C 116.67,254.676 116.17,245.676 116,236.5C 104.263,236.414 92.0963,236.414 79.5,236.5C 78.9711,193.835 78.6378,151.169 78.5,108.5 Z"/></g>
<g><path style="opacity:0.057" fill="#fdfdfd" d="M 370.5,102.5 C 371.402,109.77 371.735,117.104 371.5,124.5C 370.323,176.975 368.656,229.309 366.5,281.5C 366.5,268.833 366.5,256.167 366.5,243.5C 368.052,218.683 368.719,193.683 368.5,168.5C 369.233,146.654 369.9,124.654 370.5,102.5 Z"/></g>
<g><path style="opacity:1" fill="#efeeec" d="M 368.5,159.5 C 367.596,160.209 367.263,161.209 367.5,162.5C 284.833,162.5 202.167,162.5 119.5,162.5C 119.737,161.209 119.404,160.209 118.5,159.5C 119.299,156.57 119.632,153.57 119.5,150.5C 202.167,150.333 284.834,150.5 367.5,151C 368.444,153.719 368.777,156.552 368.5,159.5 Z"/></g>
<g><path style="opacity:0.999" fill="#eae9e9" d="M 118.5,159.5 C 119.404,160.209 119.737,161.209 119.5,162.5C 119.5,166.833 119.5,171.167 119.5,175.5C 202.167,175.5 284.833,175.5 367.5,175.5C 367.5,171.167 367.5,166.833 367.5,162.5C 367.263,161.209 367.596,160.209 368.5,159.5C 368.5,162.5 368.5,165.5 368.5,168.5C 368.719,193.683 368.052,218.683 366.5,243.5C 366.813,240.753 366.48,238.086 365.5,235.5C 364.833,239.647 364.166,243.647 363.5,247.5C 363.288,243.985 363.288,240.652 363.5,237.5C 363.192,236.692 362.692,236.025 362,235.5C 321.57,236.165 281.07,236.499 240.5,236.5C 199.622,236.494 158.955,235.828 118.5,234.5C 118.5,209.5 118.5,184.5 118.5,159.5 Z"/></g>
<g><path style="opacity:1" fill="#eeecec" d="M 119.5,162.5 C 202.167,162.5 284.833,162.5 367.5,162.5C 367.5,166.833 367.5,171.167 367.5,175.5C 284.833,175.5 202.167,175.5 119.5,175.5C 119.5,171.167 119.5,166.833 119.5,162.5 Z"/></g>
<g><path style="opacity:0.145" fill="#f9f9f9" d="M 78.5,108.5 C 78.6378,151.169 78.9711,193.835 79.5,236.5C 79.8229,242.69 79.4896,248.69 78.5,254.5C 77.6869,205.828 77.6869,157.162 78.5,108.5 Z"/></g>
<g><path style="opacity:0.998" fill="#e3e1df" d="M 117.5,263.5 C 117.667,276.837 117.5,290.171 117,303.5C 116.831,296.809 116.331,290.142 115.5,283.5C 113.844,281.978 112.677,282.311 112,284.5C 101.561,283.844 91.0606,283.177 80.5,282.5C 81.981,281.056 81.6477,280.389 79.5,280.5C 79.8182,275.968 79.4849,271.634 78.5,267.5C 78.5,263.167 78.5,258.833 78.5,254.5C 79.4896,248.69 79.8229,242.69 79.5,236.5C 92.0963,236.414 104.263,236.414 116,236.5C 116.17,245.676 116.67,254.676 117.5,263.5 Z"/></g>
<g><path style="opacity:1" fill="#e8e6e7" d="M 118.5,234.5 C 158.955,235.828 199.622,236.494 240.5,236.5C 281.07,236.499 321.57,236.165 362,235.5C 362.692,236.025 363.192,236.692 363.5,237.5C 363.288,240.652 363.288,243.985 363.5,247.5C 281.931,248.831 200.264,248.831 118.5,247.5C 118.5,243.167 118.5,238.833 118.5,234.5 Z"/></g>
<g><path style="opacity:0.998" fill="#e5e5e4" d="M 366.5,243.5 C 366.5,256.167 366.5,268.833 366.5,281.5C 366.586,282.496 366.252,283.329 365.5,284C 346.84,287.61 328.174,291.11 309.5,294.5C 308.903,293.861 308.07,293.528 307,293.5C 304.001,293.785 301.835,294.452 300.5,295.5C 296.308,296.608 291.975,297.608 287.5,298.5C 286.903,297.861 286.07,297.528 285,297.5C 282.001,297.785 279.835,298.452 278.5,299.5C 278.158,300.338 277.492,300.672 276.5,300.5C 275.903,299.861 275.07,299.528 274,299.5C 271.001,299.785 268.835,300.452 267.5,301.5C 265.039,302.531 262.373,303.198 259.5,303.5C 258.903,302.861 258.07,302.528 257,302.5C 252.367,303.149 248.533,304.149 245.5,305.5C 245.158,306.338 244.492,306.672 243.5,306.5C 240.283,305.405 236.95,305.571 233.5,307C 234.094,307.464 234.761,307.631 235.5,307.5C 227.363,309.527 219.029,311.194 210.5,312.5C 203.583,312.166 196.583,312.999 189.5,315C 190.793,315.49 192.127,315.657 193.5,315.5C 169.591,320.514 145.424,324.848 121,328.5C 119.615,328.486 118.449,328.152 117.5,327.5C 105.202,314.702 92.702,302.035 80,289.5C 79.502,286.518 79.3354,283.518 79.5,280.5C 81.6477,280.389 81.981,281.056 80.5,282.5C 91.0606,283.177 101.561,283.844 112,284.5C 112.677,282.311 113.844,281.978 115.5,283.5C 116.331,290.142 116.831,296.809 117,303.5C 117.5,290.171 117.667,276.837 117.5,263.5C 117.5,260.833 117.5,258.167 117.5,255.5C 118.473,253.052 118.806,250.385 118.5,247.5C 200.264,248.831 281.931,248.831 363.5,247.5C 364.166,243.647 364.833,239.647 365.5,235.5C 366.48,238.086 366.813,240.753 366.5,243.5 Z"/></g>
<g><path style="opacity:0.216" fill="#bfbebc" d="M 309.5,294.5 C 306.545,295.159 303.545,295.492 300.5,295.5C 301.835,294.452 304.001,293.785 307,293.5C 308.07,293.528 308.903,293.861 309.5,294.5 Z"/></g>
<g><path style="opacity:0.129" fill="#b7b6b4" d="M 287.5,298.5 C 284.545,299.159 281.545,299.492 278.5,299.5C 279.835,298.452 282.001,297.785 285,297.5C 286.07,297.528 286.903,297.861 287.5,298.5 Z"/></g>
<g><path style="opacity:0.174" fill="#d0cecd" d="M 78.5,267.5 C 79.4849,271.634 79.8182,275.968 79.5,280.5C 79.3354,283.518 79.502,286.518 80,289.5C 92.702,302.035 105.202,314.702 117.5,327.5C 104.253,315.756 91.4194,303.422 79,290.5C 78.5003,282.841 78.3336,275.174 78.5,267.5 Z"/></g>
<g><path style="opacity:0.227" fill="#b3b2b1" d="M 276.5,300.5 C 273.545,301.159 270.545,301.492 267.5,301.5C 268.835,300.452 271.001,299.785 274,299.5C 275.07,299.528 275.903,299.861 276.5,300.5 Z"/></g>
<g><path style="opacity:0.196" fill="#b1b0ae" d="M 259.5,303.5 C 254.868,304.383 250.202,305.05 245.5,305.5C 248.533,304.149 252.367,303.149 257,302.5C 258.07,302.528 258.903,302.861 259.5,303.5 Z"/></g>
<g><path style="opacity:0.098" fill="#b9b8b6" d="M 243.5,306.5 C 240.873,307.092 238.206,307.425 235.5,307.5C 234.761,307.631 234.094,307.464 233.5,307C 236.95,305.571 240.283,305.405 243.5,306.5 Z"/></g>
<g><path style="opacity:0.286" fill="#bebdbb" d="M 210.5,312.5 C 204.909,313.885 199.243,314.885 193.5,315.5C 192.127,315.657 190.793,315.49 189.5,315C 196.583,312.999 203.583,312.166 210.5,312.5 Z"/></g>
</svg>
