<?xml version="1.0" standalone="no"?>
<!DOCTYPE svg PUBLIC "-//W3C//DTD SVG 20010904//EN"
 "http://www.w3.org/TR/2001/REC-SVG-20010904/DTD/svg10.dtd">
<svg version="1.0" xmlns="http://www.w3.org/2000/svg"
 width="360.000000pt" height="360.000000pt" viewBox="0 0 360.000000 360.000000"
 preserveAspectRatio="xMidYMid meet">

<g transform="translate(0.000000,360.000000) scale(0.100000,-0.100000)"
fill="#000000" stroke="none">
<path d="M2545 2898 c-389 -493 -845 -1063 -852 -1065 -5 -2 -141 164 -303
368 l-295 371 -3 -392 c-1 -215 -1 -565 0 -777 l3 -385 133 166 132 167 0 220
c0 120 3 219 8 219 4 -1 43 -48 87 -105 44 -57 82 -104 85 -104 3 0 102 123
220 272 300 379 871 1097 942 1185 36 43 58 79 54 87 -3 8 -9 15 -13 15 -4 -1
-93 -109 -198 -242z"/>
<path d="M2137 2133 c-196 -247 -570 -717 -832 -1046 -430 -541 -494 -629
-458 -627 4 1 87 101 184 223 460 582 601 757 609 757 5 0 41 -40 80 -90 39
-50 73 -90 74 -90 1 0 96 119 211 265 116 145 213 264 218 265 4 0 7 -180 7
-400 l0 -400 135 0 135 0 0 795 c0 437 -2 795 -4 795 -2 0 -163 -201 -359
-447z"/>
</g>
</svg>
