<svg width="249" height="90" viewBox="0 0 249 90" fill="none" xmlns="http://www.w3.org/2000/svg">
<g clip-path="url(#clip0_2_2)">
<g clip-path="url(#clip1_2_2)">
<circle cx="45" cy="45" r="45" fill="#0D160B"/>
<g opacity="0.4" filter="url(#filter0_f_2_2)">
<circle cx="59" cy="31" r="10" fill="#9F7FBB"/>
</g>
<g opacity="0.6" filter="url(#filter1_f_2_2)">
<circle cx="58" cy="66" r="10" fill="#342563"/>
</g>
<g filter="url(#filter2_f_2_2)">
<circle cx="15.5" cy="13.5" r="12.5" fill="white"/>
</g>
<circle cx="45.5" cy="45.5" r="22.5" fill="#FF00C7"/>
<path d="M38.2 30V29.415C38.25 29.3817 38.325 29.335 38.425 29.275C38.525 29.2117 38.64 29.14 38.77 29.06C38.9 28.98 39.0333 28.8967 39.17 28.81C39.3067 28.7233 39.4367 28.64 39.56 28.56C39.6833 28.48 39.7883 28.4083 39.875 28.345C39.985 28.2683 40.06 28.2 40.1 28.14C40.14 28.08 40.16 28.0167 40.16 27.95V27.88C40.16 27.8133 40.14 27.7667 40.1 27.74C40.0633 27.71 39.99 27.695 39.88 27.695H39.63C39.3033 27.695 39.035 27.7067 38.825 27.73C38.6183 27.75 38.4267 27.7717 38.25 27.795L38.2 27.155C38.2233 27.1483 38.315 27.1333 38.475 27.11C38.635 27.0833 38.845 27.06 39.105 27.04C39.3683 27.0167 39.66 27.005 39.98 27.005H40.015C40.3017 27.005 40.5267 27.0383 40.69 27.105C40.8533 27.1683 40.9683 27.2583 41.035 27.375C41.1017 27.4917 41.135 27.6283 41.135 27.785V27.89C41.135 28.1233 41.0667 28.3133 40.93 28.46C40.7933 28.6067 40.6183 28.7417 40.405 28.865C40.2383 28.9617 40.0883 29.0433 39.955 29.11C39.825 29.1767 39.7183 29.2333 39.635 29.28V29.32H41.285V30H38.2ZM42.8988 30C42.4988 30 42.2121 29.9217 42.0388 29.765C41.8688 29.605 41.7838 29.3517 41.7838 29.005V28.05C41.7838 27.7033 41.8688 27.4517 42.0388 27.295C42.2088 27.1383 42.4955 27.06 42.8988 27.06H43.8538C44.2571 27.06 44.5421 27.1383 44.7088 27.295C44.8788 27.4517 44.9638 27.7033 44.9638 28.05V29.005C44.9638 29.3517 44.8788 29.605 44.7088 29.765C44.5388 29.9217 44.2538 30 43.8538 30H42.8988ZM43.0938 29.32H43.6638C43.7871 29.32 43.8738 29.2883 43.9238 29.225C43.9771 29.1617 44.0038 29.075 44.0038 28.965V28.09C44.0038 27.9933 43.9771 27.9117 43.9238 27.845C43.8705 27.775 43.7838 27.74 43.6638 27.74H43.0938C42.9738 27.74 42.8855 27.7717 42.8288 27.835C42.7721 27.8983 42.7438 27.9833 42.7438 28.09V28.965C42.7438 29.0783 42.7705 29.1667 42.8238 29.23C42.8805 29.29 42.9705 29.32 43.0938 29.32ZM45.5633 30V29.415C45.6133 29.3817 45.6883 29.335 45.7883 29.275C45.8883 29.2117 46.0033 29.14 46.1333 29.06C46.2633 28.98 46.3966 28.8967 46.5333 28.81C46.6699 28.7233 46.7999 28.64 46.9233 28.56C47.0466 28.48 47.1516 28.4083 47.2383 28.345C47.3483 28.2683 47.4233 28.2 47.4633 28.14C47.5033 28.08 47.5233 28.0167 47.5233 27.95V27.88C47.5233 27.8133 47.5033 27.7667 47.4633 27.74C47.4266 27.71 47.3533 27.695 47.2433 27.695H46.9933C46.6666 27.695 46.3983 27.7067 46.1883 27.73C45.9816 27.75 45.7899 27.7717 45.6133 27.795L45.5633 27.155C45.5866 27.1483 45.6783 27.1333 45.8383 27.11C45.9983 27.0833 46.2083 27.06 46.4683 27.04C46.7316 27.0167 47.0233 27.005 47.3433 27.005H47.3783C47.6649 27.005 47.8899 27.0383 48.0533 27.105C48.2166 27.1683 48.3316 27.2583 48.3983 27.375C48.4649 27.4917 48.4983 27.6283 48.4983 27.785V27.89C48.4983 28.1233 48.4299 28.3133 48.2933 28.46C48.1566 28.6067 47.9816 28.7417 47.7683 28.865C47.6016 28.9617 47.4516 29.0433 47.3183 29.11C47.1883 29.1767 47.0816 29.2333 46.9983 29.28V29.32H48.6483V30H45.5633ZM50.0621 30C49.7821 30 49.5637 29.9867 49.4071 29.96C49.2504 29.93 49.1387 29.9 49.0721 29.87C49.0054 29.8367 48.9637 29.8133 48.9471 29.8L49.1971 29.26C49.2637 29.2667 49.3621 29.275 49.4921 29.285C49.6221 29.2917 49.8004 29.2983 50.0271 29.305C50.2537 29.3117 50.5437 29.315 50.8971 29.315C51.0437 29.315 51.1371 29.29 51.1771 29.24C51.2171 29.1867 51.2371 29.1283 51.2371 29.065V29.045C51.2371 28.9683 51.2171 28.9067 51.1771 28.86C51.1371 28.8133 51.0587 28.79 50.9421 28.79H49.5821V28.195H50.7921C50.8821 28.195 50.9521 28.18 51.0021 28.15C51.0554 28.12 51.0821 28.0617 51.0821 27.975V27.92C51.0821 27.85 51.0671 27.7967 51.0371 27.76C51.0071 27.72 50.9437 27.7 50.8471 27.7H50.6521C50.4387 27.7 50.2337 27.705 50.0371 27.715C49.8404 27.725 49.6671 27.7383 49.5171 27.755C49.3704 27.7683 49.2571 27.7833 49.1771 27.8L49.1271 27.16C49.1504 27.1533 49.2337 27.1383 49.3771 27.115C49.5237 27.0883 49.7187 27.065 49.9621 27.045C50.2054 27.0217 50.4854 27.01 50.8021 27.01H50.9371C51.2171 27.01 51.4371 27.0433 51.5971 27.11C51.7604 27.1733 51.8771 27.2633 51.9471 27.38C52.0171 27.4967 52.0521 27.635 52.0521 27.795V27.88C52.0521 27.98 52.0337 28.065 51.9971 28.135C51.9604 28.2017 51.9187 28.2533 51.8721 28.29C51.8254 28.3267 51.7854 28.3517 51.7521 28.365C52.0554 28.455 52.2071 28.6783 52.2071 29.035V29.105C52.2071 29.3817 52.1221 29.6 51.9521 29.76C51.7854 29.92 51.4987 30 51.0921 30H50.0621Z" fill="white"/>
<path d="M38.2 64V63.415C38.25 63.3817 38.325 63.335 38.425 63.275C38.525 63.2117 38.64 63.14 38.77 63.06C38.9 62.98 39.0333 62.8967 39.17 62.81C39.3067 62.7233 39.4367 62.64 39.56 62.56C39.6833 62.48 39.7883 62.4083 39.875 62.345C39.985 62.2683 40.06 62.2 40.1 62.14C40.14 62.08 40.16 62.0167 40.16 61.95V61.88C40.16 61.8133 40.14 61.7667 40.1 61.74C40.0633 61.71 39.99 61.695 39.88 61.695H39.63C39.3033 61.695 39.035 61.7067 38.825 61.73C38.6183 61.75 38.4267 61.7717 38.25 61.795L38.2 61.155C38.2233 61.1483 38.315 61.1333 38.475 61.11C38.635 61.0833 38.845 61.06 39.105 61.04C39.3683 61.0167 39.66 61.005 39.98 61.005H40.015C40.3017 61.005 40.5267 61.0383 40.69 61.105C40.8533 61.1683 40.9683 61.2583 41.035 61.375C41.1017 61.4917 41.135 61.6283 41.135 61.785V61.89C41.135 62.1233 41.0667 62.3133 40.93 62.46C40.7933 62.6067 40.6183 62.7417 40.405 62.865C40.2383 62.9617 40.0883 63.0433 39.955 63.11C39.825 63.1767 39.7183 63.2333 39.635 63.28V63.32H41.285V64H38.2ZM42.8988 64C42.4988 64 42.2121 63.9217 42.0388 63.765C41.8688 63.605 41.7838 63.3517 41.7838 63.005V62.05C41.7838 61.7033 41.8688 61.4517 42.0388 61.295C42.2088 61.1383 42.4955 61.06 42.8988 61.06H43.8538C44.2571 61.06 44.5421 61.1383 44.7088 61.295C44.8788 61.4517 44.9638 61.7033 44.9638 62.05V63.005C44.9638 63.3517 44.8788 63.605 44.7088 63.765C44.5388 63.9217 44.2538 64 43.8538 64H42.8988ZM43.0938 63.32H43.6638C43.7871 63.32 43.8738 63.2883 43.9238 63.225C43.9771 63.1617 44.0038 63.075 44.0038 62.965V62.09C44.0038 61.9933 43.9771 61.9117 43.9238 61.845C43.8705 61.775 43.7838 61.74 43.6638 61.74H43.0938C42.9738 61.74 42.8855 61.7717 42.8288 61.835C42.7721 61.8983 42.7438 61.9833 42.7438 62.09V62.965C42.7438 63.0783 42.7705 63.1667 42.8238 63.23C42.8805 63.29 42.9705 63.32 43.0938 63.32ZM45.5633 64V63.415C45.6133 63.3817 45.6883 63.335 45.7883 63.275C45.8883 63.2117 46.0033 63.14 46.1333 63.06C46.2633 62.98 46.3966 62.8967 46.5333 62.81C46.6699 62.7233 46.7999 62.64 46.9233 62.56C47.0466 62.48 47.1516 62.4083 47.2383 62.345C47.3483 62.2683 47.4233 62.2 47.4633 62.14C47.5033 62.08 47.5233 62.0167 47.5233 61.95V61.88C47.5233 61.8133 47.5033 61.7667 47.4633 61.74C47.4266 61.71 47.3533 61.695 47.2433 61.695H46.9933C46.6666 61.695 46.3983 61.7067 46.1883 61.73C45.9816 61.75 45.7899 61.7717 45.6133 61.795L45.5633 61.155C45.5866 61.1483 45.6783 61.1333 45.8383 61.11C45.9983 61.0833 46.2083 61.06 46.4683 61.04C46.7316 61.0167 47.0233 61.005 47.3433 61.005H47.3783C47.6649 61.005 47.8899 61.0383 48.0533 61.105C48.2166 61.1683 48.3316 61.2583 48.3983 61.375C48.4649 61.4917 48.4983 61.6283 48.4983 61.785V61.89C48.4983 62.1233 48.4299 62.3133 48.2933 62.46C48.1566 62.6067 47.9816 62.7417 47.7683 62.865C47.6016 62.9617 47.4516 63.0433 47.3183 63.11C47.1883 63.1767 47.0816 63.2333 46.9983 63.28V63.32H48.6483V64H45.5633ZM50.0621 64C49.7821 64 49.5637 63.9867 49.4071 63.96C49.2504 63.93 49.1387 63.9 49.0721 63.87C49.0054 63.8367 48.9637 63.8133 48.9471 63.8L49.1971 63.26C49.2637 63.2667 49.3621 63.275 49.4921 63.285C49.6221 63.2917 49.8004 63.2983 50.0271 63.305C50.2537 63.3117 50.5437 63.315 50.8971 63.315C51.0437 63.315 51.1371 63.29 51.1771 63.24C51.2171 63.1867 51.2371 63.1283 51.2371 63.065V63.045C51.2371 62.9683 51.2171 62.9067 51.1771 62.86C51.1371 62.8133 51.0587 62.79 50.9421 62.79H49.5821V62.195H50.7921C50.8821 62.195 50.9521 62.18 51.0021 62.15C51.0554 62.12 51.0821 62.0617 51.0821 61.975V61.92C51.0821 61.85 51.0671 61.7967 51.0371 61.76C51.0071 61.72 50.9437 61.7 50.8471 61.7H50.6521C50.4387 61.7 50.2337 61.705 50.0371 61.715C49.8404 61.725 49.6671 61.7383 49.5171 61.755C49.3704 61.7683 49.2571 61.7833 49.1771 61.8L49.1271 61.16C49.1504 61.1533 49.2337 61.1383 49.3771 61.115C49.5237 61.0883 49.7187 61.065 49.9621 61.045C50.2054 61.0217 50.4854 61.01 50.8021 61.01H50.9371C51.2171 61.01 51.4371 61.0433 51.5971 61.11C51.7604 61.1733 51.8771 61.2633 51.9471 61.38C52.0171 61.4967 52.0521 61.635 52.0521 61.795V61.88C52.0521 61.98 52.0337 62.065 51.9971 62.135C51.9604 62.2017 51.9187 62.2533 51.8721 62.29C51.8254 62.3267 51.7854 62.3517 51.7521 62.365C52.0554 62.455 52.2071 62.6783 52.2071 63.035V63.105C52.2071 63.3817 52.1221 63.6 51.9521 63.76C51.7854 63.92 51.4987 64 51.0921 64H50.0621Z" fill="white"/>
<circle cx="45.5" cy="45.5" r="2.5" fill="#3D453C"/>
<path d="M53.1472 46.3338L54.6103 46.7602L54.8491 46.7986L54.4597 48.135C54.3919 48.3673 54.2952 48.5276 54.1695 48.616C54.0432 48.7062 53.8821 48.7228 53.6862 48.6658L53.1361 48.5054C52.9364 48.4472 52.8073 48.3471 52.7487 48.205C52.692 48.0635 52.6978 47.8756 52.7661 47.6414L53.1472 46.3338ZM53.381 47.0113L53.1888 47.6708C53.1457 47.8187 53.192 47.9134 53.3278 47.9551L53.826 48.1003C53.8817 48.1165 53.9335 48.1139 53.9814 48.0925C54.0313 48.0716 54.0685 48.0189 54.0931 47.9344L54.2854 47.2748L53.381 47.0113Z" fill="white"/>
<path d="M52.147 49.1871C52.2505 49.0448 52.3513 48.9623 52.4494 48.9397C52.5475 48.917 52.6588 48.951 52.7834 49.0416C52.8982 49.1251 52.9585 49.2173 52.9644 49.318C52.9691 49.4203 52.9215 49.5402 52.8215 49.6777L52.7667 49.7529C52.7009 49.8435 52.6347 49.9277 52.5682 50.0054C52.5017 50.0832 52.4435 50.1497 52.3935 50.2048L52.4323 50.233C52.455 50.2495 52.4803 50.2605 52.5084 50.2661C52.5365 50.2717 52.5717 50.2454 52.6141 50.1872L52.7023 50.0659C52.8305 49.8896 52.9261 49.7514 52.9891 49.6513C53.0536 49.5523 53.0917 49.4897 53.1034 49.4636L53.3799 49.6239C53.3961 49.6357 53.3884 49.6734 53.357 49.7371C53.3271 49.8019 53.2787 49.8854 53.2118 49.9876C53.1465 50.091 53.068 50.2058 52.9762 50.3319L52.7997 50.5745C52.7221 50.6813 52.6465 50.7512 52.573 50.7843C52.5011 50.8185 52.4308 50.8267 52.3621 50.8089C52.2935 50.7911 52.2244 50.7569 52.1548 50.7064L51.427 50.1769L51.6776 49.8324L51.7949 49.7731C51.8151 49.7284 51.8499 49.6585 51.8993 49.5634C51.9491 49.471 52.0141 49.3699 52.0941 49.2599L52.147 49.1871ZM52.3309 49.5361L52.0874 49.8708C52.0615 49.9064 52.0495 49.9298 52.0512 49.941C52.053 49.9522 52.0708 49.9701 52.1048 49.9948L52.1897 50.0566L52.4862 49.649C52.5085 49.6183 52.5194 49.5915 52.5186 49.5687C52.5179 49.5459 52.5014 49.5228 52.469 49.4992C52.4383 49.4769 52.4128 49.4695 52.3925 49.4769C52.3738 49.4856 52.3533 49.5053 52.3309 49.5361Z" fill="white"/>
<path d="M50.2358 50.6238C50.3228 50.5566 50.4087 50.5041 50.4933 50.4665C50.5768 50.4273 50.638 50.4052 50.6772 50.4002L50.8079 50.7655C50.7445 50.7816 50.6817 50.805 50.6193 50.8355C50.5554 50.8672 50.4989 50.902 50.4498 50.94L50.4237 50.9601C50.2861 51.0666 50.2286 51.1982 50.2513 51.3551L50.396 51.2432L51.6832 51.9469L51.2062 52.3157L50.514 51.8421L50.3665 51.7249L50.3427 51.7432L50.419 51.9155L50.7006 52.7065L50.2307 53.0698L50.1567 52.8956C50.1391 52.8107 50.1188 52.7126 50.096 52.6013C50.0728 52.4928 50.0488 52.38 50.0239 52.2627C49.999 52.1455 49.9757 52.032 49.9541 51.9223C49.9309 51.8138 49.9105 51.7171 49.8929 51.6322C49.8481 51.414 49.847 51.2278 49.8895 51.0735C49.9321 50.9193 50.0261 50.7859 50.1717 50.6734L50.2358 50.6238Z" fill="white"/>
<path d="M49.0849 52.2051C49.2097 52.1562 49.3006 52.128 49.3579 52.1206C49.4151 52.1131 49.4463 52.1159 49.4514 52.129L49.4548 52.466C49.4303 52.4692 49.3616 52.4886 49.2488 52.5243C49.1349 52.5625 48.9719 52.6233 48.7596 52.7066L48.5613 52.7844C48.5148 52.8027 48.4878 52.8187 48.4803 52.8324C48.4716 52.8486 48.4724 52.8698 48.4826 52.8959C48.495 52.9275 48.5102 52.9442 48.528 52.9458C48.5447 52.95 48.5744 52.9436 48.6172 52.9268L49.1842 52.7044C49.3201 52.651 49.4351 52.6349 49.5293 52.6559C49.6242 52.6788 49.6976 52.7564 49.7495 52.8886L49.7714 52.9444C49.7985 53.0133 49.8136 53.0793 49.8169 53.1425C49.821 53.2075 49.7988 53.2688 49.7505 53.3265C49.703 53.3859 49.6168 53.4402 49.4921 53.4891L48.6655 53.8135C48.5538 53.8573 48.4721 53.8819 48.4204 53.8871C48.3688 53.8923 48.3404 53.8884 48.3353 53.8754L48.247 53.5684C48.279 53.5623 48.3566 53.5383 48.4798 53.4964C48.6019 53.4571 48.7681 53.3962 48.9785 53.3136L49.1768 53.2358C49.2233 53.2175 49.2509 53.2003 49.2596 53.184C49.2671 53.1703 49.2661 53.1513 49.2566 53.1271C49.2471 53.1029 49.2346 53.0874 49.219 53.0806C49.2023 53.0764 49.1707 53.0835 49.1242 53.1017L48.5461 53.3286C48.4009 53.3856 48.2814 53.396 48.1877 53.3597C48.0939 53.3234 48.0248 53.2485 47.9802 53.1349L47.9594 53.0819C47.9331 53.0148 47.917 52.9492 47.9111 52.8849C47.906 52.8225 47.9262 52.7619 47.9719 52.7031C48.0176 52.6444 48.1056 52.5894 48.2359 52.5383L49.0849 52.2051Z" fill="white"/>
<path d="M45.3981 53.8431L45.7089 54.0838L45.6097 54.2819L45.3842 54.392L45.6342 54.3637L45.8228 54.4775L45.6913 54.8457L45.4732 54.8149L45.3016 54.6355L45.4057 54.8609L45.3541 55.0754L44.9613 55.0632L44.926 54.846L45.0407 54.6305L44.8676 54.7902L44.6509 54.8105L44.5396 54.4319L44.7348 54.3299L44.9497 54.3695L44.7609 54.2617L44.6771 54.061L45.0021 53.8399L45.1594 53.9918L45.1888 54.2088L45.2316 53.9881L45.3981 53.8431Z" fill="white"/>
<path d="M43.2289 52.8878L42.5936 54.2731L42.5196 54.5064L41.2571 53.9275C41.1352 53.8716 41.0442 53.8134 40.984 53.7527C40.9212 53.6931 40.882 53.6322 40.8665 53.5701C40.8483 53.509 40.8475 53.4459 40.8641 53.3809C40.8781 53.3169 40.9 53.2522 40.9301 53.1867L41.0288 52.9713C41.0689 52.884 41.1205 52.8098 41.1838 52.7486C41.2444 52.6884 41.3233 52.6531 41.4205 52.6426C41.515 52.6332 41.6332 52.661 41.775 52.726L41.9632 52.8123C42.0777 52.8648 42.1837 52.9167 42.2812 52.968C42.3769 53.0185 42.4484 53.0568 42.4958 53.083L42.6972 52.6439L43.2289 52.8878ZM42.3358 53.432L41.7713 53.1731C41.7113 53.1456 41.6641 53.1383 41.6296 53.1511C41.5951 53.1639 41.5658 53.1966 41.5416 53.2493L41.4778 53.3884C41.4537 53.4411 41.4471 53.4843 41.458 53.518C41.4682 53.5534 41.5042 53.5853 41.566 53.6137L42.1332 53.8738L42.3358 53.432Z" fill="white"/>
<path d="M40.8318 51.6329L39.8105 52.9441L39.6867 53.1518L39.2323 52.7979L40.401 51.2974L40.8318 51.6329Z" fill="white"/>
<path d="M39.8944 50.8964C40.0055 51.0329 40.0595 51.1514 40.0564 51.252C40.0532 51.3526 39.9919 51.4515 39.8725 51.5488C39.7624 51.6385 39.6579 51.6733 39.559 51.6532C39.4589 51.6316 39.3551 51.5549 39.2478 51.4231L39.189 51.351C39.1183 51.2642 39.0538 51.1787 38.9956 51.0946C38.9374 51.0104 38.888 50.9372 38.8475 50.8747L38.8103 50.9051C38.7886 50.9227 38.7714 50.9444 38.7588 50.9702C38.7462 50.9959 38.7627 51.0367 38.8082 51.0925L38.9029 51.2088C39.0406 51.3778 39.1498 51.5055 39.2305 51.592C39.3097 51.6797 39.3605 51.7325 39.3828 51.7504L39.1571 51.9768C39.1416 51.9894 39.1071 51.9724 39.0536 51.9257C38.9985 51.8803 38.9301 51.8122 38.8484 51.7214C38.7652 51.6318 38.6743 51.5266 38.5757 51.4057L38.3863 51.1731C38.3029 51.0707 38.2546 50.9798 38.2414 50.9003C38.2267 50.822 38.2367 50.7519 38.2714 50.6901C38.3062 50.6282 38.3569 50.5702 38.4235 50.5158L39.1213 49.9474L39.3904 50.2777L39.4178 50.4063C39.4558 50.4372 39.5145 50.4887 39.5939 50.5608C39.6704 50.6326 39.7516 50.7212 39.8375 50.8266L39.8944 50.8964ZM39.51 50.9851L39.2486 50.6641C39.2208 50.63 39.2012 50.6124 39.19 50.6112C39.1787 50.6101 39.1568 50.6227 39.1243 50.6493L39.0429 50.7156L39.3612 51.1063C39.3852 51.1358 39.4083 51.1531 39.4305 51.1582C39.4527 51.1633 39.4793 51.1532 39.5104 51.128C39.5398 51.104 39.5535 51.0812 39.5515 51.0597C39.5478 51.0394 39.534 51.0145 39.51 50.9851Z" fill="white"/>
<path d="M38.3241 48.6001C38.3828 48.7403 38.3935 48.8486 38.356 48.925C38.3186 49.0014 38.2409 49.0643 38.1228 49.1137L37.5859 49.3384L37.6809 49.5653L37.3322 49.7113L37.2836 49.595C37.2705 49.5637 37.2545 49.5411 37.2357 49.5273C37.2143 49.5124 37.1868 49.5087 37.1531 49.5163L36.835 49.5877L36.645 49.1338L37.0241 48.9751L36.8307 48.513L37.1794 48.367L37.3728 48.8292L37.8018 48.6497C37.8479 48.6304 37.8737 48.6065 37.8792 48.5782C37.8847 48.5499 37.8781 48.5136 37.8596 48.4693L37.7438 48.1926L38.0416 48.0029C38.0634 48.0393 38.0945 48.0956 38.1351 48.1719C38.1739 48.2489 38.2129 48.3345 38.2523 48.4285L38.3241 48.6001Z" fill="white"/>
<path d="M37.7585 47.0775C37.7781 47.2524 37.7594 47.3813 37.7023 47.4642C37.6451 47.5471 37.5401 47.5971 37.387 47.6143C37.2459 47.6301 37.1392 47.6029 37.0669 47.5325C36.9944 47.4601 36.9486 47.3395 36.9297 47.1705L36.9193 47.0781C36.9068 46.9668 36.8988 46.86 36.8954 46.7578C36.892 46.6555 36.8901 46.5672 36.8898 46.4927L36.8421 46.4981C36.8143 46.5012 36.7881 46.5102 36.7636 46.525C36.7391 46.5398 36.7309 46.583 36.7389 46.6546L36.7557 46.8037C36.78 47.0203 36.8027 47.1868 36.8238 47.3032C36.8429 47.4198 36.857 47.4916 36.8661 47.5188L36.5538 47.5871C36.5339 47.5893 36.5141 47.5563 36.4944 47.4881C36.4727 47.4201 36.452 47.3258 36.4324 47.2052C36.4109 47.0849 36.3914 46.9472 36.374 46.7922L36.3405 46.494C36.3258 46.3629 36.3344 46.2603 36.3664 46.1862C36.3963 46.1124 36.4426 46.0589 36.5053 46.0257C36.568 45.9925 36.6421 45.9711 36.7275 45.9615L37.6219 45.8611L37.6695 46.2845L37.6229 46.4074C37.6382 46.454 37.6597 46.5291 37.6874 46.6326C37.7129 46.7344 37.7333 46.8529 37.7484 46.9881L37.7585 47.0775ZM37.3873 46.9441L37.3411 46.5327C37.3362 46.4889 37.3293 46.4635 37.3205 46.4565C37.3116 46.4494 37.2863 46.4482 37.2446 46.4529L37.1402 46.4646L37.1965 46.9655C37.2007 47.0033 37.2108 47.0303 37.2267 47.0466C37.2426 47.0629 37.2705 47.0689 37.3102 47.0644C37.348 47.0602 37.3718 47.0484 37.3817 47.0292C37.3897 47.0102 37.3915 46.9818 37.3873 46.9441Z" fill="white"/>
<path d="M37.6113 44.6492L36.6604 44.4791L36.6171 44.7213L36.248 44.6552L36.2913 44.4131L36.0875 44.3766C35.7961 44.3245 35.679 44.139 35.736 43.8201L35.7725 43.6163C35.8147 43.38 35.8558 43.2127 35.8958 43.1142C35.9361 43.0137 35.9642 42.9649 35.9799 42.9677L36.3066 43.1176C36.2869 43.1486 36.2633 43.2063 36.236 43.2908C36.2067 43.375 36.1812 43.4781 36.1593 43.6002L36.144 43.6858C36.1352 43.735 36.1376 43.773 36.1511 43.7998C36.1649 43.8246 36.1935 43.8409 36.2368 43.8487L36.3874 43.8756L36.4867 43.3204L36.8559 43.3865L36.7565 43.9417L37.7075 44.1117L37.6113 44.6492Z" fill="white"/>
<path d="M38.0214 42.687C37.9624 42.8051 37.9012 42.8852 37.8377 42.9272C37.7742 42.9693 37.708 42.9854 37.6391 42.9756C37.5694 42.9631 37.4951 42.9371 37.4164 42.8978L37.0112 42.6953C36.936 42.6578 36.8739 42.6144 36.8247 42.5652C36.7737 42.5151 36.7455 42.453 36.7401 42.3787C36.7338 42.3018 36.7602 42.2043 36.8192 42.0863L37.192 41.3402C37.251 41.2221 37.3127 41.1434 37.3771 41.104C37.4405 41.062 37.5072 41.0472 37.5769 41.0597C37.6458 41.0695 37.7178 41.0932 37.793 41.1308L38.1982 41.3332C38.2769 41.3726 38.3418 41.4173 38.3928 41.4674C38.4429 41.5148 38.4702 41.5765 38.4747 41.6525C38.48 41.7267 38.4532 41.8229 38.3942 41.941L38.0214 42.687ZM37.7906 42.3034L37.9502 41.984C37.9931 41.8981 37.9783 41.8382 37.9058 41.8042L37.5945 41.6487C37.5588 41.6308 37.527 41.6272 37.4993 41.638C37.4724 41.6469 37.4474 41.6747 37.4242 41.7212L37.2659 42.0378C37.2427 42.0844 37.2351 42.1219 37.2431 42.1505C37.2512 42.1792 37.2731 42.2024 37.3089 42.2203L37.6202 42.3758C37.6909 42.4134 37.7477 42.3892 37.7906 42.3034Z" fill="white"/>
<path d="M39.1167 40.6739L38.1324 39.7587L38.4225 39.4467L38.5441 39.4041C38.5628 39.2959 38.6239 39.1861 38.7274 39.0748C38.7955 39.0015 38.8635 38.9446 38.9313 38.9039C38.9977 38.8619 39.0554 38.8322 39.1043 38.8148C39.1546 38.796 39.1874 38.7856 39.2029 38.7837L39.3864 39.1591C39.3625 39.1642 39.3227 39.1791 39.267 39.2037C39.2127 39.2269 39.153 39.2588 39.0879 39.2994C39.0214 39.3386 38.9603 39.3883 38.9044 39.4483L38.882 39.4725C38.8438 39.5135 38.8219 39.5518 38.8161 39.5874C38.8088 39.6216 38.8287 39.6605 38.8755 39.7041L39.4885 40.274L39.1167 40.6739Z" fill="white"/>
<path d="M40.2514 39.3603L39.5635 38.2056L39.9373 37.983L40.0201 37.9755C40.0648 37.9372 40.1166 37.8971 40.1754 37.8551C40.2348 37.8104 40.3007 37.7665 40.3728 37.7235L40.512 37.6406C40.5618 37.6109 40.614 37.5891 40.6686 37.5752C40.7222 37.5596 40.7673 37.5572 40.804 37.5679C40.824 37.5351 40.8481 37.5033 40.8763 37.4725C40.9035 37.44 40.9422 37.4053 40.9924 37.3684C41.0433 37.3288 41.1108 37.2839 41.195 37.2337L41.3239 37.157C41.4098 37.1058 41.4831 37.0784 41.5438 37.0748C41.6045 37.0712 41.6551 37.0819 41.6955 37.1067C41.7376 37.1305 41.7716 37.1603 41.7976 37.196C41.8242 37.229 41.8452 37.2584 41.8606 37.2842L42.3519 38.1089L41.8803 38.3899L41.4473 37.6631C41.4063 37.5944 41.3446 37.5846 41.2622 37.6337L41.1178 37.7197C41.0903 37.7361 41.0735 37.7508 41.0673 37.7638C41.0611 37.7768 41.0651 37.7953 41.0794 37.8194L41.5401 38.5926L41.0607 38.8781L40.6277 38.1513C40.5868 38.0826 40.525 38.0728 40.4426 38.1219L40.3111 38.2002C40.2785 38.2197 40.2591 38.2359 40.2528 38.2489C40.2473 38.2592 40.2522 38.2772 40.2676 38.303L40.7282 39.0762L40.2514 39.3603Z" fill="white"/>
<path d="M43.8755 36.9608L43.5293 36.7746L43.5944 36.5629L43.7987 36.4172L43.5568 36.4863L43.352 36.4051L43.4209 36.0203L43.6412 36.0147L43.8399 36.1633L43.7001 35.9582L43.7157 35.7382L44.1051 35.6853L44.1757 35.8937L44.0982 36.1253L44.2425 35.9392L44.4529 35.8834L44.6252 36.2384L44.4494 36.3713L44.2309 36.3676L44.4349 36.4429L44.5507 36.627L44.2667 36.8986L44.0864 36.7747L44.0217 36.5655L44.0158 36.7904L43.8755 36.9608Z" fill="white"/>
<path d="M46.7487 37.679L46.4347 35.7663L47.0451 35.9341L47.1915 37.0759L47.2044 37.3345L47.2304 37.3417L47.3708 37.1252L48.0893 36.2214L48.6852 36.3853L48.5911 36.5461L47.4458 37.8708L46.7487 37.679Z" fill="white"/>
<path d="M49.7174 37.2057C49.5398 37.1094 49.492 36.9857 49.574 36.8345C49.6197 36.7501 49.6732 36.704 49.7343 36.6961C49.7981 36.6875 49.874 36.707 49.9619 36.7547C50.0551 36.8052 50.1137 36.8586 50.1378 36.9149C50.1646 36.9703 50.1551 37.0403 50.1094 37.1247C50.0274 37.2759 49.8968 37.3029 49.7174 37.2057ZM48.7728 38.3692L49.4133 37.1876L49.8933 37.4478L49.2529 38.6293L48.7728 38.3692Z" fill="white"/>
<path d="M49.525 38.6675L50.4185 37.6635L50.7435 37.9527L50.7932 38.0773C50.8666 38.1212 50.9514 38.1779 51.0475 38.2473C51.1451 38.3182 51.2328 38.3881 51.3104 38.4573L51.4225 38.557C51.4972 38.6235 51.5454 38.6851 51.5671 38.7419C51.5888 38.7988 51.594 38.8502 51.5825 38.8962C51.5725 38.9435 51.5544 38.9849 51.5281 39.0205C51.5047 39.0558 51.483 39.0847 51.463 39.1071L50.8248 39.8242L50.4147 39.4593L50.9771 38.8273C51.0303 38.7675 51.021 38.7057 50.9493 38.6419L50.649 38.3747C50.6206 38.3494 50.5993 38.3358 50.585 38.3338C50.5736 38.3316 50.5579 38.3417 50.5379 38.3641L49.9396 39.0364L49.525 38.6675Z" fill="white"/>
<path d="M51.101 41.0047C51.0426 40.9115 50.9989 40.8209 50.9698 40.7329C50.939 40.646 50.923 40.5828 50.9219 40.5434L51.2984 40.4493C51.3082 40.514 51.3252 40.5788 51.3494 40.6439C51.3747 40.7107 51.4038 40.7703 51.4367 40.8229L51.4542 40.8509C51.5465 40.9983 51.6719 41.0685 51.8302 41.0614L51.7331 40.9063L52.5603 39.6948L52.8803 40.2059L52.3408 40.848L52.2095 40.9832L52.2254 41.0087L52.4044 40.9497L53.2193 40.7475L53.5345 41.251L53.3539 41.3074C53.2676 41.3166 53.168 41.327 53.055 41.3388C52.9448 41.3512 52.8301 41.364 52.711 41.3772C52.5918 41.3904 52.4766 41.4024 52.3653 41.4131C52.2551 41.4254 52.1569 41.4362 52.0706 41.4454C51.8491 41.4684 51.6636 41.4512 51.5144 41.3936C51.3651 41.3361 51.2416 41.2293 51.144 41.0734L51.101 41.0047Z" fill="white"/>
<path d="M52.4246 42.1264L53.9625 41.4962L54.1732 41.3774L54.3916 41.9104L52.6316 42.6317L52.4246 42.1264Z" fill="white"/>
<path d="M53.7879 44.1618L53.9859 43.8222L54.1952 43.8947L54.3339 44.1038L54.2731 43.8597L54.3614 43.6578L54.7435 43.74L54.7415 43.9603L54.5861 44.1538L54.7959 44.0212L55.0153 44.0443L55.0547 44.4354L54.8439 44.4988L54.6152 44.4132L54.7962 44.5639L54.8447 44.7761L54.4839 44.936L54.3572 44.7558L54.3684 44.5376L54.2862 44.7388L54.0982 44.8482L53.8365 44.5549L53.9665 44.379L54.1779 44.3215L53.9534 44.3079L53.7879 44.1618Z" fill="white"/>
<circle cx="45.5" cy="45.5" r="40.35" stroke="#6E736D" stroke-width="0.3"/>
<circle cx="45" cy="45" r="31.85" stroke="#6E736D" stroke-width="0.3"/>
<circle cx="45.5" cy="45.5" r="36.35" stroke="#6E736D" stroke-width="0.3"/>
<circle cx="30.5" cy="32.5" r="0.5" fill="url(#paint0_linear_2_2)"/>
<circle cx="34.5" cy="37.5" r="0.5" fill="url(#paint1_linear_2_2)"/>
<circle cx="27.5" cy="45.5" r="0.5" fill="url(#paint2_linear_2_2)"/>
<circle cx="58.5" cy="36.5" r="0.5" fill="url(#paint3_linear_2_2)"/>
<circle cx="57.5" cy="51.5" r="0.5" fill="url(#paint4_linear_2_2)"/>
<circle cx="48.5" cy="49.5" r="0.5" fill="url(#paint5_linear_2_2)"/>
<circle cx="31.5" cy="51.5" r="0.5" fill="url(#paint6_linear_2_2)"/>
<circle cx="40.5" cy="65.5" r="0.5" fill="url(#paint7_linear_2_2)"/>
<circle cx="36.5" cy="57.5" r="0.5" fill="url(#paint8_linear_2_2)"/>
<circle cx="29.5" cy="50.5" r="0.5" fill="url(#paint9_linear_2_2)"/>
<circle cx="45.5" cy="39.5" r="0.5" fill="url(#paint10_linear_2_2)"/>
<circle cx="59.5" cy="30.5" r="0.5" fill="url(#paint11_linear_2_2)"/>
<circle cx="61.5" cy="41.5" r="0.5" fill="url(#paint12_linear_2_2)"/>
<circle cx="48.5" cy="58.5" r="0.5" fill="url(#paint13_linear_2_2)"/>
<circle cx="57.5" cy="58.5" r="0.5" fill="url(#paint14_linear_2_2)"/>
<circle cx="63.5" cy="51.5" r="0.5" fill="url(#paint15_linear_2_2)"/>
<circle cx="63.5" cy="39.5" r="0.5" fill="url(#paint16_linear_2_2)"/>
<circle cx="45.5" cy="33.5" r="0.5" fill="url(#paint17_linear_2_2)"/>
<circle cx="44.5" cy="25.5" r="0.5" fill="url(#paint18_linear_2_2)"/>
<circle cx="38.5" cy="34.5" r="0.5" fill="url(#paint19_linear_2_2)"/>
<circle cx="32.5" cy="43.5" r="0.5" fill="url(#paint20_linear_2_2)"/>
<circle cx="26.5" cy="52.5" r="0.5" fill="url(#paint21_linear_2_2)"/>
<circle cx="30.5" cy="57.5" r="0.5" fill="url(#paint22_linear_2_2)"/>
<circle cx="34.5" cy="62.5" r="0.5" fill="url(#paint23_linear_2_2)"/>
<circle cx="50.5" cy="65.5" r="0.5" fill="url(#paint24_linear_2_2)"/>
<circle cx="53.5" cy="55.5" r="0.5" fill="url(#paint25_linear_2_2)"/>
<circle cx="56.5" cy="45.5" r="0.5" fill="url(#paint26_linear_2_2)"/>
<circle cx="64.5" cy="47.5" r="0.5" fill="url(#paint27_linear_2_2)"/>
<circle cx="52.5" cy="33.5" r="0.5" fill="url(#paint28_linear_2_2)"/>
<circle cx="48.5" cy="31.5" r="0.5" fill="url(#paint29_linear_2_2)"/>
<circle cx="41.5" cy="32.5" r="0.5" fill="url(#paint30_linear_2_2)"/>
<circle cx="34.5" cy="33.5" r="0.5" fill="url(#paint31_linear_2_2)"/>
<circle cx="27.5" cy="34.5" r="0.5" fill="url(#paint32_linear_2_2)"/>
<circle cx="28.5" cy="39.5" r="0.5" fill="url(#paint33_linear_2_2)"/>
<circle cx="29.5" cy="44.5" r="0.5" fill="url(#paint34_linear_2_2)"/>
<circle cx="32.5" cy="48.5" r="0.5" fill="url(#paint35_linear_2_2)"/>
<circle cx="35.5" cy="52.5" r="0.5" fill="url(#paint36_linear_2_2)"/>
<circle cx="38.5" cy="56.5" r="0.5" fill="url(#paint37_linear_2_2)"/>
<circle cx="41.5" cy="60.5" r="0.5" fill="url(#paint38_linear_2_2)"/>
<circle cx="44.5" cy="66.5" r="0.5" fill="url(#paint39_linear_2_2)"/>
<circle cx="56.5" cy="62.5" r="0.5" fill="url(#paint40_linear_2_2)"/>
<circle cx="62.5" cy="56.5" r="0.5" fill="url(#paint41_linear_2_2)"/>
<circle cx="60.5" cy="46.5" r="0.5" fill="url(#paint42_linear_2_2)"/>
<circle cx="64.5" cy="44.5" r="0.5" fill="url(#paint43_linear_2_2)"/>
<circle cx="54.5" cy="36.5" r="0.5" fill="url(#paint44_linear_2_2)"/>
<circle cx="44.5" cy="28.5" r="0.5" fill="url(#paint45_linear_2_2)"/>
<circle cx="35.5" cy="28.5" r="0.5" fill="url(#paint46_linear_2_2)"/>
<circle cx="54.5" cy="27.5" r="0.5" fill="url(#paint47_linear_2_2)"/>
<circle cx="55.5" cy="32.5" r="0.5" fill="url(#paint48_linear_2_2)"/>
<circle cx="56.5" cy="37.5" r="0.5" fill="url(#paint49_linear_2_2)"/>
<circle cx="57.5" cy="42.5" r="0.5" fill="url(#paint50_linear_2_2)"/>
<circle cx="58.5" cy="47.5" r="0.5" fill="url(#paint51_linear_2_2)"/>
<circle cx="59.5" cy="52.5" r="0.5" fill="url(#paint52_linear_2_2)"/>
<circle cx="60.5" cy="57.5" r="0.5" fill="url(#paint53_linear_2_2)"/>
<circle cx="53.5" cy="59.5" r="0.5" fill="url(#paint54_linear_2_2)"/>
<circle cx="45.5" cy="57.5" r="0.5" fill="url(#paint55_linear_2_2)"/>
<circle cx="37.5" cy="55.5" r="0.5" fill="url(#paint56_linear_2_2)"/>
<circle cx="29.5" cy="53.5" r="0.5" fill="url(#paint57_linear_2_2)"/>
<circle cx="25.5" cy="48.5" r="0.5" fill="url(#paint58_linear_2_2)"/>
<circle cx="25.5" cy="41.5" r="0.5" fill="url(#paint59_linear_2_2)"/>
<circle cx="50.5" cy="25.5" r="0.5" fill="url(#paint60_linear_2_2)"/>
<circle cx="38.5" cy="25.5" r="0.5" fill="url(#paint61_linear_2_2)"/>
<circle cx="32.5" cy="29.5" r="0.5" fill="url(#paint62_linear_2_2)"/>
<circle cx="62.5" cy="34.5" r="0.5" fill="url(#paint63_linear_2_2)"/>
<circle cx="59.5" cy="38.5" r="0.5" fill="url(#paint64_linear_2_2)"/>
<circle cx="50.5" cy="44.5" r="0.5" fill="url(#paint65_linear_2_2)"/>
<circle cx="42.5" cy="49.5" r="0.5" fill="url(#paint66_linear_2_2)"/>
<circle cx="35.5" cy="41.5" r="0.5" fill="url(#paint67_linear_2_2)"/>
<circle cx="30.5" cy="36.5" r="0.5" fill="url(#paint68_linear_2_2)"/>
<circle cx="49.5" cy="54.5" r="0.5" fill="url(#paint69_linear_2_2)"/>
<circle cx="39.5" cy="45.5" r="0.5" fill="url(#paint70_linear_2_2)"/>
<circle cx="56.5" cy="55.5" r="0.5" fill="url(#paint71_linear_2_2)"/>
</g>
<path d="M105.48 44L99 29.912H104.064L107.616 38.408L108.264 40.376H108.48L109.104 38.408L112.728 29.912H117.672L117.288 31.352L111.264 44H105.48ZM122.275 32.216C120.659 32.216 119.851 31.528 119.851 30.152C119.851 29.384 120.051 28.856 120.451 28.568C120.867 28.264 121.475 28.112 122.275 28.112C123.123 28.112 123.739 28.264 124.123 28.568C124.523 28.856 124.723 29.384 124.723 30.152C124.723 31.528 123.907 32.216 122.275 32.216ZM120.067 44V33.248H124.435V44H120.067ZM128.809 44V33.248H132.289L133.249 33.728C133.921 33.6 134.729 33.488 135.673 33.392C136.633 33.296 137.529 33.248 138.361 33.248H139.561C140.361 33.248 140.977 33.36 141.409 33.584C141.841 33.808 142.145 34.088 142.321 34.424C142.513 34.76 142.625 35.104 142.657 35.456C142.705 35.792 142.729 36.08 142.729 36.32V44H138.337V37.232C138.337 36.592 137.953 36.272 137.185 36.272H133.969C133.665 36.272 133.465 36.304 133.369 36.368C133.289 36.416 133.249 36.56 133.249 36.8V44H128.809ZM148.184 48.704C147.304 48.704 146.504 48.616 145.784 48.44C145.064 48.28 144.568 48.12 144.296 47.96L145.256 45.008C145.736 45.216 146.248 45.376 146.792 45.488C147.352 45.6 147.88 45.656 148.376 45.656H148.64C150.032 45.656 151.04 45.104 151.664 44H150.2L145.496 33.248H150.32L152.384 39.632L152.744 41.096H152.984L153.344 39.632L155.432 33.248H160.184L159.8 34.712C159.496 35.336 159.144 36.056 158.744 36.872C158.36 37.672 157.96 38.504 157.544 39.368C157.128 40.232 156.72 41.064 156.32 41.864C155.936 42.664 155.592 43.376 155.288 44C154.504 45.6 153.6 46.784 152.576 47.552C151.552 48.32 150.304 48.704 148.832 48.704H148.184ZM163.3 44V30.704L163.06 28.784H167.668V44H163.3ZM178.93 44V31.808L178.69 29.888H189.826C191.762 29.888 193.21 30.272 194.17 31.04C195.146 31.808 195.634 33.008 195.634 34.64V39.224C195.634 40.888 195.154 42.104 194.194 42.872C193.234 43.624 191.778 44 189.826 44H178.93ZM183.61 40.688H189.106C190.338 40.688 190.962 40.12 190.978 38.984V34.832C190.978 34.368 190.842 33.976 190.57 33.656C190.298 33.32 189.81 33.152 189.106 33.152H183.61V40.688ZM203.283 44C201.875 44 200.867 43.736 200.259 43.208C199.651 42.68 199.347 41.8 199.347 40.568C199.347 39.432 199.659 38.608 200.283 38.096C200.923 37.584 201.923 37.328 203.283 37.328H204.027C204.923 37.328 205.779 37.36 206.595 37.424C207.411 37.488 208.115 37.552 208.707 37.616V37.232C208.707 37.008 208.659 36.792 208.563 36.584C208.467 36.376 208.131 36.272 207.555 36.272H206.355C204.611 36.272 203.267 36.304 202.323 36.368C201.379 36.416 200.795 36.464 200.571 36.512L200.307 33.968C200.307 33.808 200.587 33.68 201.147 33.584C201.707 33.472 202.475 33.392 203.451 33.344C204.427 33.28 205.539 33.248 206.787 33.248H209.187C210.243 33.248 211.051 33.408 211.611 33.728C212.171 34.032 212.555 34.448 212.763 34.976C212.971 35.504 213.075 36.112 213.075 36.8V44H209.667L208.731 43.52C208.347 43.6 207.731 43.704 206.883 43.832C206.051 43.944 205.091 44 204.003 44H203.283ZM204.675 41.168H207.987C208.339 41.168 208.547 41.136 208.611 41.072C208.675 41.008 208.707 40.808 208.707 40.472V39.632H204.675C204.371 39.632 204.147 39.688 204.003 39.8C203.859 39.912 203.787 40.128 203.787 40.448C203.787 40.752 203.859 40.952 204.003 41.048C204.147 41.128 204.371 41.168 204.675 41.168ZM218.52 48.704C217.64 48.704 216.84 48.616 216.12 48.44C215.4 48.28 214.904 48.12 214.632 47.96L215.592 45.008C216.072 45.216 216.584 45.376 217.128 45.488C217.688 45.6 218.216 45.656 218.712 45.656H218.976C220.368 45.656 221.376 45.104 222 44H220.536L215.832 33.248H220.656L222.72 39.632L223.08 41.096H223.32L223.68 39.632L225.768 33.248H230.52L230.136 34.712C229.832 35.336 229.48 36.056 229.08 36.872C228.696 37.672 228.296 38.504 227.88 39.368C227.464 40.232 227.056 41.064 226.656 41.864C226.272 42.664 225.928 43.376 225.624 44C224.84 45.6 223.936 46.784 222.912 47.552C221.888 48.32 220.64 48.704 219.168 48.704H218.52ZM236.108 44C235.036 44 234.276 43.944 233.828 43.832C233.38 43.72 233.156 43.608 233.156 43.496L234.116 40.976C234.308 41.024 234.876 41.08 235.82 41.144C236.78 41.192 238.172 41.216 239.996 41.216H241.7C242.1 41.216 242.348 41.176 242.444 41.096C242.556 41 242.612 40.84 242.612 40.616C242.612 40.344 242.548 40.176 242.42 40.112C242.308 40.032 242.068 39.992 241.7 39.992H236.828C235.66 39.992 234.756 39.776 234.116 39.344C233.476 38.896 233.156 38.104 233.156 36.968V36.488C233.156 35.896 233.236 35.36 233.396 34.88C233.556 34.384 233.9 33.992 234.428 33.704C234.956 33.4 235.756 33.248 236.828 33.248H243.932C244.892 33.248 245.572 33.304 245.972 33.416C246.372 33.528 246.572 33.64 246.572 33.752L246.332 36.296C246.076 36.248 245.428 36.2 244.388 36.152C243.364 36.088 241.948 36.056 240.14 36.056H238.436C238.036 36.056 237.78 36.104 237.668 36.2C237.572 36.28 237.524 36.424 237.524 36.632C237.524 36.84 237.572 36.992 237.668 37.088C237.78 37.168 238.036 37.208 238.436 37.208H243.404C244.652 37.208 245.572 37.48 246.164 38.024C246.756 38.568 247.052 39.328 247.052 40.304V40.76C247.052 41.336 246.98 41.872 246.836 42.368C246.692 42.848 246.364 43.24 245.852 43.544C245.34 43.848 244.524 44 243.404 44H236.108Z" fill="url(#paint72_linear_2_2)"/>
<path d="M104.737 58V50.888L104.597 49.754H111.079C111.704 49.754 112.204 49.824 112.577 49.964C112.96 50.0947 113.244 50.2767 113.431 50.51C113.627 50.734 113.753 51 113.809 51.308C113.874 51.6067 113.907 51.924 113.907 52.26V53.366C113.907 53.814 113.832 54.2293 113.683 54.612C113.543 54.9853 113.277 55.2887 112.885 55.522C112.502 55.746 111.947 55.858 111.219 55.858H110.253C109.665 55.858 109.114 55.844 108.601 55.816C108.097 55.788 107.719 55.7647 107.467 55.746V58H104.737ZM107.467 53.954H110.365C110.673 53.954 110.888 53.8933 111.009 53.772C111.13 53.6507 111.191 53.4547 111.191 53.184V52.47C111.191 52.1993 111.135 52.0033 111.023 51.882C110.911 51.7513 110.696 51.686 110.379 51.686H107.467V53.954ZM123.563 58V50.244L123.423 49.124H126.111V58H123.563ZM137.71 58C136.889 58 136.301 57.846 135.946 57.538C135.591 57.23 135.414 56.7167 135.414 55.998C135.414 55.3353 135.596 54.8547 135.96 54.556C136.333 54.2573 136.917 54.108 137.71 54.108H138.144C138.667 54.108 139.166 54.1267 139.642 54.164C140.118 54.2013 140.529 54.2387 140.874 54.276V54.052C140.874 53.9213 140.846 53.7953 140.79 53.674C140.734 53.5527 140.538 53.492 140.202 53.492H139.502C138.485 53.492 137.701 53.5107 137.15 53.548C136.599 53.576 136.259 53.604 136.128 53.632L135.974 52.148C135.974 52.0547 136.137 51.98 136.464 51.924C136.791 51.8587 137.239 51.812 137.808 51.784C138.377 51.7467 139.026 51.728 139.754 51.728H141.154C141.77 51.728 142.241 51.8213 142.568 52.008C142.895 52.1853 143.119 52.428 143.24 52.736C143.361 53.044 143.422 53.3987 143.422 53.8V58H141.434L140.888 57.72C140.664 57.7667 140.305 57.8273 139.81 57.902C139.325 57.9673 138.765 58 138.13 58H137.71ZM138.522 56.348H140.454C140.659 56.348 140.781 56.3293 140.818 56.292C140.855 56.2547 140.874 56.138 140.874 55.942V55.452H138.522C138.345 55.452 138.214 55.4847 138.13 55.55C138.046 55.6153 138.004 55.7413 138.004 55.928C138.004 56.1053 138.046 56.222 138.13 56.278C138.214 56.3247 138.345 56.348 138.522 56.348ZM155.306 58C154.597 58 154.111 57.8507 153.85 57.552C153.589 57.2533 153.458 56.8053 153.458 56.208V53.492H152.31V51.728H152.898C153.057 51.728 153.183 51.7 153.276 51.644C153.379 51.5787 153.444 51.4667 153.472 51.308L153.738 49.81H156.034V51.728H158.372V53.492H156.034V55.662C156.034 55.8953 156.09 56.0493 156.202 56.124C156.314 56.1987 156.482 56.236 156.706 56.236H158.106L158.386 57.86C158.19 57.888 157.891 57.9207 157.49 57.958C157.089 57.986 156.65 58 156.174 58H155.306ZM169.427 58C168.606 58 168.018 57.846 167.663 57.538C167.308 57.23 167.131 56.7167 167.131 55.998C167.131 55.3353 167.313 54.8547 167.677 54.556C168.05 54.2573 168.634 54.108 169.427 54.108H169.861C170.384 54.108 170.883 54.1267 171.359 54.164C171.835 54.2013 172.246 54.2387 172.591 54.276V54.052C172.591 53.9213 172.563 53.7953 172.507 53.674C172.451 53.5527 172.255 53.492 171.919 53.492H171.219C170.202 53.492 169.418 53.5107 168.867 53.548C168.316 53.576 167.976 53.604 167.845 53.632L167.691 52.148C167.691 52.0547 167.854 51.98 168.181 51.924C168.508 51.8587 168.956 51.812 169.525 51.784C170.094 51.7467 170.743 51.728 171.471 51.728H172.871C173.487 51.728 173.958 51.8213 174.285 52.008C174.612 52.1853 174.836 52.428 174.957 52.736C175.078 53.044 175.139 53.3987 175.139 53.8V58H173.151L172.605 57.72C172.381 57.7667 172.022 57.8273 171.527 57.902C171.042 57.9673 170.482 58 169.847 58H169.427ZM170.239 56.348H172.171C172.376 56.348 172.498 56.3293 172.535 56.292C172.572 56.2547 172.591 56.138 172.591 55.942V55.452H170.239C170.062 55.452 169.931 55.4847 169.847 55.55C169.763 55.6153 169.721 55.7413 169.721 55.928C169.721 56.1053 169.763 56.222 169.847 56.278C169.931 56.3247 170.062 56.348 170.239 56.348ZM185.175 58V53.492H184.027V51.742H185.175V50.776C185.175 49.3947 185.931 48.704 187.443 48.704H188.409C189.529 48.704 190.332 48.7553 190.817 48.858C191.312 48.9607 191.559 49.0493 191.559 49.124L191.139 50.748C190.981 50.6827 190.696 50.622 190.285 50.566C189.875 50.5007 189.38 50.468 188.801 50.468H188.395C188.162 50.468 187.989 50.51 187.877 50.594C187.775 50.678 187.723 50.8227 187.723 51.028V51.742H190.355V53.492H187.723V58H185.175ZM201.402 58C200.786 58 200.324 57.9113 200.016 57.734C199.708 57.5567 199.503 57.314 199.4 57.006C199.307 56.6887 199.26 56.3247 199.26 55.914V53.8C199.26 53.408 199.311 53.058 199.414 52.75C199.517 52.4327 199.717 52.1853 200.016 52.008C200.324 51.8213 200.786 51.728 201.402 51.728H205.294C205.91 51.728 206.367 51.8213 206.666 52.008C206.974 52.1853 207.175 52.4327 207.268 52.75C207.371 53.058 207.422 53.408 207.422 53.8V55.914C207.422 56.3247 207.371 56.6887 207.268 57.006C207.175 57.314 206.974 57.5567 206.666 57.734C206.367 57.9113 205.91 58 205.294 58H201.402ZM202.522 56.236H204.188C204.636 56.236 204.855 56.0493 204.846 55.676V54.052C204.846 53.8653 204.795 53.7253 204.692 53.632C204.599 53.5387 204.431 53.492 204.188 53.492H202.536C202.293 53.492 202.121 53.5387 202.018 53.632C201.915 53.7253 201.864 53.8653 201.864 54.052V55.676C201.855 56.0493 202.074 56.236 202.522 56.236ZM216.797 58V51.728H218.785L219.317 52.008C219.746 51.728 220.315 51.588 221.025 51.588C221.491 51.588 221.902 51.6393 222.257 51.742C222.611 51.8353 222.896 51.938 223.111 52.05C223.335 52.162 223.475 52.2413 223.531 52.288L222.831 54.108C222.737 54.0427 222.56 53.954 222.299 53.842C222.047 53.73 221.748 53.6273 221.403 53.534C221.057 53.4313 220.693 53.38 220.311 53.38H220.157C219.895 53.38 219.695 53.4267 219.555 53.52C219.415 53.604 219.345 53.7953 219.345 54.094V58H216.797ZM232.347 58V51.728H234.377L234.727 51.896C234.998 51.8493 235.301 51.812 235.637 51.784C235.983 51.7467 236.351 51.728 236.743 51.728H237.499C237.77 51.728 238.031 51.7653 238.283 51.84C238.535 51.9053 238.722 52.0033 238.843 52.134C239.002 52.05 239.175 51.98 239.361 51.924C239.548 51.8587 239.786 51.812 240.075 51.784C240.374 51.7467 240.752 51.728 241.209 51.728H241.909C242.376 51.728 242.735 51.7933 242.987 51.924C243.239 52.0547 243.417 52.218 243.519 52.414C243.631 52.61 243.697 52.8107 243.715 53.016C243.743 53.212 243.757 53.38 243.757 53.52V58H241.195V54.052C241.195 53.6787 240.971 53.492 240.523 53.492H239.739C239.59 53.492 239.487 53.5107 239.431 53.548C239.375 53.5853 239.347 53.6693 239.347 53.8V58H236.743V54.052C236.743 53.6787 236.519 53.492 236.071 53.492H235.357C235.18 53.492 235.063 53.5107 235.007 53.548C234.961 53.576 234.937 53.66 234.937 53.8V58H232.347Z" fill="url(#paint73_linear_2_2)"/>
</g>
<defs>
<filter id="filter0_f_2_2" x="39" y="11" width="40" height="40" filterUnits="userSpaceOnUse" color-interpolation-filters="sRGB">
<feFlood flood-opacity="0" result="BackgroundImageFix"/>
<feBlend mode="normal" in="SourceGraphic" in2="BackgroundImageFix" result="shape"/>
<feGaussianBlur stdDeviation="5" result="effect1_foregroundBlur_2_2"/>
</filter>
<filter id="filter1_f_2_2" x="38" y="46" width="40" height="40" filterUnits="userSpaceOnUse" color-interpolation-filters="sRGB">
<feFlood flood-opacity="0" result="BackgroundImageFix"/>
<feBlend mode="normal" in="SourceGraphic" in2="BackgroundImageFix" result="shape"/>
<feGaussianBlur stdDeviation="5" result="effect1_foregroundBlur_2_2"/>
</filter>
<filter id="filter2_f_2_2" x="-7" y="-9" width="45" height="45" filterUnits="userSpaceOnUse" color-interpolation-filters="sRGB">
<feFlood flood-opacity="0" result="BackgroundImageFix"/>
<feBlend mode="normal" in="SourceGraphic" in2="BackgroundImageFix" result="shape"/>
<feGaussianBlur stdDeviation="5" result="effect1_foregroundBlur_2_2"/>
</filter>
<linearGradient id="paint0_linear_2_2" x1="30.5" y1="32" x2="30.5" y2="33" gradientUnits="userSpaceOnUse">
<stop offset="0.307292" stop-color="white"/>
<stop offset="1" stop-color="#A7A7A7" stop-opacity="0"/>
</linearGradient>
<linearGradient id="paint1_linear_2_2" x1="34.5" y1="37" x2="34.5" y2="38" gradientUnits="userSpaceOnUse">
<stop offset="0.307292" stop-color="white"/>
<stop offset="1" stop-color="#A7A7A7" stop-opacity="0"/>
</linearGradient>
<linearGradient id="paint2_linear_2_2" x1="27.5" y1="45" x2="27.5" y2="46" gradientUnits="userSpaceOnUse">
<stop offset="0.307292" stop-color="white"/>
<stop offset="1" stop-color="#A7A7A7" stop-opacity="0"/>
</linearGradient>
<linearGradient id="paint3_linear_2_2" x1="58.5" y1="36" x2="58.5" y2="37" gradientUnits="userSpaceOnUse">
<stop offset="0.307292" stop-color="white"/>
<stop offset="1" stop-color="#A7A7A7" stop-opacity="0"/>
</linearGradient>
<linearGradient id="paint4_linear_2_2" x1="57.5" y1="51" x2="57.5" y2="52" gradientUnits="userSpaceOnUse">
<stop offset="0.307292" stop-color="white"/>
<stop offset="1" stop-color="#A7A7A7" stop-opacity="0"/>
</linearGradient>
<linearGradient id="paint5_linear_2_2" x1="48.5" y1="49" x2="48.5" y2="50" gradientUnits="userSpaceOnUse">
<stop offset="0.307292" stop-color="white"/>
<stop offset="1" stop-color="#A7A7A7" stop-opacity="0"/>
</linearGradient>
<linearGradient id="paint6_linear_2_2" x1="31.5" y1="51" x2="31.5" y2="52" gradientUnits="userSpaceOnUse">
<stop offset="0.307292" stop-color="white"/>
<stop offset="1" stop-color="#A7A7A7" stop-opacity="0"/>
</linearGradient>
<linearGradient id="paint7_linear_2_2" x1="40.5" y1="65" x2="40.5" y2="66" gradientUnits="userSpaceOnUse">
<stop offset="0.307292" stop-color="white"/>
<stop offset="1" stop-color="#A7A7A7" stop-opacity="0"/>
</linearGradient>
<linearGradient id="paint8_linear_2_2" x1="36.5" y1="57" x2="36.5" y2="58" gradientUnits="userSpaceOnUse">
<stop offset="0.307292" stop-color="white"/>
<stop offset="1" stop-color="#A7A7A7" stop-opacity="0"/>
</linearGradient>
<linearGradient id="paint9_linear_2_2" x1="29.5" y1="50" x2="29.5" y2="51" gradientUnits="userSpaceOnUse">
<stop offset="0.307292" stop-color="white"/>
<stop offset="1" stop-color="#A7A7A7" stop-opacity="0"/>
</linearGradient>
<linearGradient id="paint10_linear_2_2" x1="45.5" y1="39" x2="45.5" y2="40" gradientUnits="userSpaceOnUse">
<stop offset="0.307292" stop-color="white"/>
<stop offset="1" stop-color="#A7A7A7" stop-opacity="0"/>
</linearGradient>
<linearGradient id="paint11_linear_2_2" x1="59.5" y1="30" x2="59.5" y2="31" gradientUnits="userSpaceOnUse">
<stop offset="0.307292" stop-color="white"/>
<stop offset="1" stop-color="#A7A7A7" stop-opacity="0"/>
</linearGradient>
<linearGradient id="paint12_linear_2_2" x1="61.5" y1="41" x2="61.5" y2="42" gradientUnits="userSpaceOnUse">
<stop offset="0.307292" stop-color="white"/>
<stop offset="1" stop-color="#A7A7A7" stop-opacity="0"/>
</linearGradient>
<linearGradient id="paint13_linear_2_2" x1="48.5" y1="58" x2="48.5" y2="59" gradientUnits="userSpaceOnUse">
<stop offset="0.307292" stop-color="white"/>
<stop offset="1" stop-color="#A7A7A7" stop-opacity="0"/>
</linearGradient>
<linearGradient id="paint14_linear_2_2" x1="57.5" y1="58" x2="57.5" y2="59" gradientUnits="userSpaceOnUse">
<stop offset="0.307292" stop-color="white"/>
<stop offset="1" stop-color="#A7A7A7" stop-opacity="0"/>
</linearGradient>
<linearGradient id="paint15_linear_2_2" x1="63.5" y1="51" x2="63.5" y2="52" gradientUnits="userSpaceOnUse">
<stop offset="0.307292" stop-color="white"/>
<stop offset="1" stop-color="#A7A7A7" stop-opacity="0"/>
</linearGradient>
<linearGradient id="paint16_linear_2_2" x1="63.5" y1="39" x2="63.5" y2="40" gradientUnits="userSpaceOnUse">
<stop offset="0.307292" stop-color="white"/>
<stop offset="1" stop-color="#A7A7A7" stop-opacity="0"/>
</linearGradient>
<linearGradient id="paint17_linear_2_2" x1="45.5" y1="33" x2="45.5" y2="34" gradientUnits="userSpaceOnUse">
<stop offset="0.307292" stop-color="white"/>
<stop offset="1" stop-color="#A7A7A7" stop-opacity="0"/>
</linearGradient>
<linearGradient id="paint18_linear_2_2" x1="44.5" y1="25" x2="44.5" y2="26" gradientUnits="userSpaceOnUse">
<stop offset="0.307292" stop-color="white"/>
<stop offset="1" stop-color="#A7A7A7" stop-opacity="0"/>
</linearGradient>
<linearGradient id="paint19_linear_2_2" x1="38.5" y1="34" x2="38.5" y2="35" gradientUnits="userSpaceOnUse">
<stop offset="0.307292" stop-color="white"/>
<stop offset="1" stop-color="#A7A7A7" stop-opacity="0"/>
</linearGradient>
<linearGradient id="paint20_linear_2_2" x1="32.5" y1="43" x2="32.5" y2="44" gradientUnits="userSpaceOnUse">
<stop offset="0.307292" stop-color="white"/>
<stop offset="1" stop-color="#A7A7A7" stop-opacity="0"/>
</linearGradient>
<linearGradient id="paint21_linear_2_2" x1="26.5" y1="52" x2="26.5" y2="53" gradientUnits="userSpaceOnUse">
<stop offset="0.307292" stop-color="white"/>
<stop offset="1" stop-color="#A7A7A7" stop-opacity="0"/>
</linearGradient>
<linearGradient id="paint22_linear_2_2" x1="30.5" y1="57" x2="30.5" y2="58" gradientUnits="userSpaceOnUse">
<stop offset="0.307292" stop-color="white"/>
<stop offset="1" stop-color="#A7A7A7" stop-opacity="0"/>
</linearGradient>
<linearGradient id="paint23_linear_2_2" x1="34.5" y1="62" x2="34.5" y2="63" gradientUnits="userSpaceOnUse">
<stop offset="0.307292" stop-color="white"/>
<stop offset="1" stop-color="#A7A7A7" stop-opacity="0"/>
</linearGradient>
<linearGradient id="paint24_linear_2_2" x1="50.5" y1="65" x2="50.5" y2="66" gradientUnits="userSpaceOnUse">
<stop offset="0.307292" stop-color="white"/>
<stop offset="1" stop-color="#A7A7A7" stop-opacity="0"/>
</linearGradient>
<linearGradient id="paint25_linear_2_2" x1="53.5" y1="55" x2="53.5" y2="56" gradientUnits="userSpaceOnUse">
<stop offset="0.307292" stop-color="white"/>
<stop offset="1" stop-color="#A7A7A7" stop-opacity="0"/>
</linearGradient>
<linearGradient id="paint26_linear_2_2" x1="56.5" y1="45" x2="56.5" y2="46" gradientUnits="userSpaceOnUse">
<stop offset="0.307292" stop-color="white"/>
<stop offset="1" stop-color="#A7A7A7" stop-opacity="0"/>
</linearGradient>
<linearGradient id="paint27_linear_2_2" x1="64.5" y1="47" x2="64.5" y2="48" gradientUnits="userSpaceOnUse">
<stop offset="0.307292" stop-color="white"/>
<stop offset="1" stop-color="#A7A7A7" stop-opacity="0"/>
</linearGradient>
<linearGradient id="paint28_linear_2_2" x1="52.5" y1="33" x2="52.5" y2="34" gradientUnits="userSpaceOnUse">
<stop offset="0.307292" stop-color="white"/>
<stop offset="1" stop-color="#A7A7A7" stop-opacity="0"/>
</linearGradient>
<linearGradient id="paint29_linear_2_2" x1="48.5" y1="31" x2="48.5" y2="32" gradientUnits="userSpaceOnUse">
<stop offset="0.307292" stop-color="white"/>
<stop offset="1" stop-color="#A7A7A7" stop-opacity="0"/>
</linearGradient>
<linearGradient id="paint30_linear_2_2" x1="41.5" y1="32" x2="41.5" y2="33" gradientUnits="userSpaceOnUse">
<stop offset="0.307292" stop-color="white"/>
<stop offset="1" stop-color="#A7A7A7" stop-opacity="0"/>
</linearGradient>
<linearGradient id="paint31_linear_2_2" x1="34.5" y1="33" x2="34.5" y2="34" gradientUnits="userSpaceOnUse">
<stop offset="0.307292" stop-color="white"/>
<stop offset="1" stop-color="#A7A7A7" stop-opacity="0"/>
</linearGradient>
<linearGradient id="paint32_linear_2_2" x1="27.5" y1="34" x2="27.5" y2="35" gradientUnits="userSpaceOnUse">
<stop offset="0.307292" stop-color="white"/>
<stop offset="1" stop-color="#A7A7A7" stop-opacity="0"/>
</linearGradient>
<linearGradient id="paint33_linear_2_2" x1="28.5" y1="39" x2="28.5" y2="40" gradientUnits="userSpaceOnUse">
<stop offset="0.307292" stop-color="white"/>
<stop offset="1" stop-color="#A7A7A7" stop-opacity="0"/>
</linearGradient>
<linearGradient id="paint34_linear_2_2" x1="29.5" y1="44" x2="29.5" y2="45" gradientUnits="userSpaceOnUse">
<stop offset="0.307292" stop-color="white"/>
<stop offset="1" stop-color="#A7A7A7" stop-opacity="0"/>
</linearGradient>
<linearGradient id="paint35_linear_2_2" x1="32.5" y1="48" x2="32.5" y2="49" gradientUnits="userSpaceOnUse">
<stop offset="0.307292" stop-color="white"/>
<stop offset="1" stop-color="#A7A7A7" stop-opacity="0"/>
</linearGradient>
<linearGradient id="paint36_linear_2_2" x1="35.5" y1="52" x2="35.5" y2="53" gradientUnits="userSpaceOnUse">
<stop offset="0.307292" stop-color="white"/>
<stop offset="1" stop-color="#A7A7A7" stop-opacity="0"/>
</linearGradient>
<linearGradient id="paint37_linear_2_2" x1="38.5" y1="56" x2="38.5" y2="57" gradientUnits="userSpaceOnUse">
<stop offset="0.307292" stop-color="white"/>
<stop offset="1" stop-color="#A7A7A7" stop-opacity="0"/>
</linearGradient>
<linearGradient id="paint38_linear_2_2" x1="41.5" y1="60" x2="41.5" y2="61" gradientUnits="userSpaceOnUse">
<stop offset="0.307292" stop-color="white"/>
<stop offset="1" stop-color="#A7A7A7" stop-opacity="0"/>
</linearGradient>
<linearGradient id="paint39_linear_2_2" x1="44.5" y1="66" x2="44.5" y2="67" gradientUnits="userSpaceOnUse">
<stop offset="0.307292" stop-color="white"/>
<stop offset="1" stop-color="#A7A7A7" stop-opacity="0"/>
</linearGradient>
<linearGradient id="paint40_linear_2_2" x1="56.5" y1="62" x2="56.5" y2="63" gradientUnits="userSpaceOnUse">
<stop offset="0.307292" stop-color="white"/>
<stop offset="1" stop-color="#A7A7A7" stop-opacity="0"/>
</linearGradient>
<linearGradient id="paint41_linear_2_2" x1="62.5" y1="56" x2="62.5" y2="57" gradientUnits="userSpaceOnUse">
<stop offset="0.307292" stop-color="white"/>
<stop offset="1" stop-color="#A7A7A7" stop-opacity="0"/>
</linearGradient>
<linearGradient id="paint42_linear_2_2" x1="60.5" y1="46" x2="60.5" y2="47" gradientUnits="userSpaceOnUse">
<stop offset="0.307292" stop-color="white"/>
<stop offset="1" stop-color="#A7A7A7" stop-opacity="0"/>
</linearGradient>
<linearGradient id="paint43_linear_2_2" x1="64.5" y1="44" x2="64.5" y2="45" gradientUnits="userSpaceOnUse">
<stop offset="0.307292" stop-color="white"/>
<stop offset="1" stop-color="#A7A7A7" stop-opacity="0"/>
</linearGradient>
<linearGradient id="paint44_linear_2_2" x1="54.5" y1="36" x2="54.5" y2="37" gradientUnits="userSpaceOnUse">
<stop offset="0.307292" stop-color="white"/>
<stop offset="1" stop-color="#A7A7A7" stop-opacity="0"/>
</linearGradient>
<linearGradient id="paint45_linear_2_2" x1="44.5" y1="28" x2="44.5" y2="29" gradientUnits="userSpaceOnUse">
<stop offset="0.307292" stop-color="white"/>
<stop offset="1" stop-color="#A7A7A7" stop-opacity="0"/>
</linearGradient>
<linearGradient id="paint46_linear_2_2" x1="35.5" y1="28" x2="35.5" y2="29" gradientUnits="userSpaceOnUse">
<stop offset="0.307292" stop-color="white"/>
<stop offset="1" stop-color="#A7A7A7" stop-opacity="0"/>
</linearGradient>
<linearGradient id="paint47_linear_2_2" x1="54.5" y1="27" x2="54.5" y2="28" gradientUnits="userSpaceOnUse">
<stop offset="0.307292" stop-color="white"/>
<stop offset="1" stop-color="#A7A7A7" stop-opacity="0"/>
</linearGradient>
<linearGradient id="paint48_linear_2_2" x1="55.5" y1="32" x2="55.5" y2="33" gradientUnits="userSpaceOnUse">
<stop offset="0.307292" stop-color="white"/>
<stop offset="1" stop-color="#A7A7A7" stop-opacity="0"/>
</linearGradient>
<linearGradient id="paint49_linear_2_2" x1="56.5" y1="37" x2="56.5" y2="38" gradientUnits="userSpaceOnUse">
<stop offset="0.307292" stop-color="white"/>
<stop offset="1" stop-color="#A7A7A7" stop-opacity="0"/>
</linearGradient>
<linearGradient id="paint50_linear_2_2" x1="57.5" y1="42" x2="57.5" y2="43" gradientUnits="userSpaceOnUse">
<stop offset="0.307292" stop-color="white"/>
<stop offset="1" stop-color="#A7A7A7" stop-opacity="0"/>
</linearGradient>
<linearGradient id="paint51_linear_2_2" x1="58.5" y1="47" x2="58.5" y2="48" gradientUnits="userSpaceOnUse">
<stop offset="0.307292" stop-color="white"/>
<stop offset="1" stop-color="#A7A7A7" stop-opacity="0"/>
</linearGradient>
<linearGradient id="paint52_linear_2_2" x1="59.5" y1="52" x2="59.5" y2="53" gradientUnits="userSpaceOnUse">
<stop offset="0.307292" stop-color="white"/>
<stop offset="1" stop-color="#A7A7A7" stop-opacity="0"/>
</linearGradient>
<linearGradient id="paint53_linear_2_2" x1="60.5" y1="57" x2="60.5" y2="58" gradientUnits="userSpaceOnUse">
<stop offset="0.307292" stop-color="white"/>
<stop offset="1" stop-color="#A7A7A7" stop-opacity="0"/>
</linearGradient>
<linearGradient id="paint54_linear_2_2" x1="53.5" y1="59" x2="53.5" y2="60" gradientUnits="userSpaceOnUse">
<stop offset="0.307292" stop-color="white"/>
<stop offset="1" stop-color="#A7A7A7" stop-opacity="0"/>
</linearGradient>
<linearGradient id="paint55_linear_2_2" x1="45.5" y1="57" x2="45.5" y2="58" gradientUnits="userSpaceOnUse">
<stop offset="0.307292" stop-color="white"/>
<stop offset="1" stop-color="#A7A7A7" stop-opacity="0"/>
</linearGradient>
<linearGradient id="paint56_linear_2_2" x1="37.5" y1="55" x2="37.5" y2="56" gradientUnits="userSpaceOnUse">
<stop offset="0.307292" stop-color="white"/>
<stop offset="1" stop-color="#A7A7A7" stop-opacity="0"/>
</linearGradient>
<linearGradient id="paint57_linear_2_2" x1="29.5" y1="53" x2="29.5" y2="54" gradientUnits="userSpaceOnUse">
<stop offset="0.307292" stop-color="white"/>
<stop offset="1" stop-color="#A7A7A7" stop-opacity="0"/>
</linearGradient>
<linearGradient id="paint58_linear_2_2" x1="25.5" y1="48" x2="25.5" y2="49" gradientUnits="userSpaceOnUse">
<stop offset="0.307292" stop-color="white"/>
<stop offset="1" stop-color="#A7A7A7" stop-opacity="0"/>
</linearGradient>
<linearGradient id="paint59_linear_2_2" x1="25.5" y1="41" x2="25.5" y2="42" gradientUnits="userSpaceOnUse">
<stop offset="0.307292" stop-color="white"/>
<stop offset="1" stop-color="#A7A7A7" stop-opacity="0"/>
</linearGradient>
<linearGradient id="paint60_linear_2_2" x1="50.5" y1="25" x2="50.5" y2="26" gradientUnits="userSpaceOnUse">
<stop offset="0.307292" stop-color="white"/>
<stop offset="1" stop-color="#A7A7A7" stop-opacity="0"/>
</linearGradient>
<linearGradient id="paint61_linear_2_2" x1="38.5" y1="25" x2="38.5" y2="26" gradientUnits="userSpaceOnUse">
<stop offset="0.307292" stop-color="white"/>
<stop offset="1" stop-color="#A7A7A7" stop-opacity="0"/>
</linearGradient>
<linearGradient id="paint62_linear_2_2" x1="32.5" y1="29" x2="32.5" y2="30" gradientUnits="userSpaceOnUse">
<stop offset="0.307292" stop-color="white"/>
<stop offset="1" stop-color="#A7A7A7" stop-opacity="0"/>
</linearGradient>
<linearGradient id="paint63_linear_2_2" x1="62.5" y1="34" x2="62.5" y2="35" gradientUnits="userSpaceOnUse">
<stop offset="0.307292" stop-color="white"/>
<stop offset="1" stop-color="#A7A7A7" stop-opacity="0"/>
</linearGradient>
<linearGradient id="paint64_linear_2_2" x1="59.5" y1="38" x2="59.5" y2="39" gradientUnits="userSpaceOnUse">
<stop offset="0.307292" stop-color="white"/>
<stop offset="1" stop-color="#A7A7A7" stop-opacity="0"/>
</linearGradient>
<linearGradient id="paint65_linear_2_2" x1="50.5" y1="44" x2="50.5" y2="45" gradientUnits="userSpaceOnUse">
<stop offset="0.307292" stop-color="white"/>
<stop offset="1" stop-color="#A7A7A7" stop-opacity="0"/>
</linearGradient>
<linearGradient id="paint66_linear_2_2" x1="42.5" y1="49" x2="42.5" y2="50" gradientUnits="userSpaceOnUse">
<stop offset="0.307292" stop-color="white"/>
<stop offset="1" stop-color="#A7A7A7" stop-opacity="0"/>
</linearGradient>
<linearGradient id="paint67_linear_2_2" x1="35.5" y1="41" x2="35.5" y2="42" gradientUnits="userSpaceOnUse">
<stop offset="0.307292" stop-color="white"/>
<stop offset="1" stop-color="#A7A7A7" stop-opacity="0"/>
</linearGradient>
<linearGradient id="paint68_linear_2_2" x1="30.5" y1="36" x2="30.5" y2="37" gradientUnits="userSpaceOnUse">
<stop offset="0.307292" stop-color="white"/>
<stop offset="1" stop-color="#A7A7A7" stop-opacity="0"/>
</linearGradient>
<linearGradient id="paint69_linear_2_2" x1="49.5" y1="54" x2="49.5" y2="55" gradientUnits="userSpaceOnUse">
<stop offset="0.307292" stop-color="white"/>
<stop offset="1" stop-color="#A7A7A7" stop-opacity="0"/>
</linearGradient>
<linearGradient id="paint70_linear_2_2" x1="39.5" y1="45" x2="39.5" y2="46" gradientUnits="userSpaceOnUse">
<stop offset="0.307292" stop-color="white"/>
<stop offset="1" stop-color="#A7A7A7" stop-opacity="0"/>
</linearGradient>
<linearGradient id="paint71_linear_2_2" x1="56.5" y1="55" x2="56.5" y2="56" gradientUnits="userSpaceOnUse">
<stop offset="0.307292" stop-color="white"/>
<stop offset="1" stop-color="#A7A7A7" stop-opacity="0"/>
</linearGradient>
<linearGradient id="paint72_linear_2_2" x1="174" y1="37" x2="174" y2="56" gradientUnits="userSpaceOnUse">
<stop stop-color="white"/>
<stop offset="1" stop-opacity="0"/>
<stop offset="1" stop-color="#D5D5D5" stop-opacity="0"/>
</linearGradient>
<linearGradient id="paint73_linear_2_2" x1="174" y1="54" x2="174" y2="62.5" gradientUnits="userSpaceOnUse">
<stop stop-color="white"/>
<stop offset="1" stop-color="#6E736D" stop-opacity="0"/>
<stop offset="1" stop-color="#6E736D" stop-opacity="0"/>
<stop offset="1" stop-opacity="0"/>
</linearGradient>
<clipPath id="clip0_2_2">
<rect width="249" height="90" fill="white"/>
</clipPath>
<clipPath id="clip1_2_2">
<rect width="90" height="90" rx="45" fill="white"/>
</clipPath>
</defs>
</svg>
